<?xml version="1.0" encoding="utf-8"?>
<!-- Generator: Adobe Illustrator 23.0.3, SVG Export Plug-In . SVG Version: 6.00 Build 0)  -->
<svg version="1.1" id="Layer_2" xmlns="http://www.w3.org/2000/svg" xmlns:xlink="http://www.w3.org/1999/xlink" x="0px" y="0px"
	 viewBox="0 0 1080 1080" style="enable-background:new 0 0 1080 1080;" xml:space="preserve">
<style type="text/css">
	.st0{fill:#DCF2FF;}
	.st1{fill:#CCEEFF;}
	.st2{fill:#B0E1FF;}
	.st3{fill:#F2F2F2;}
	.st4{fill:#FFFFFF;}
	.st5{fill:#CCE9FF;}
	.st6{fill:#0B4870;}
	.st7{fill:#2A94F4;}
	.st8{fill:#FCD2B1;}
	.st9{fill:#FFE3CA;}
	.st10{fill:#FCD6BE;}
	.st11{fill:#FFBE55;}
	.st12{fill:#F9C5A2;}
	.st13{fill:#0E538C;}
	.st14{fill:#D3D3D3;}
	.st15{fill:#E0E0E0;}
</style>
<g>
	<path class="st0" d="M224.1,666.1c19.6-51.5,43.2-101.7,70.5-150c18.2-32.2,39.9-65.2,74.4-81.4c14.3-6.7,31.7-10,45.9-3
		c14.8,7.3,21.7,23.4,27.6,38.2c11.6,29.5,23.3,59,34.9,88.5c3.5,8.8,7.8,18.6,16.9,22.3c15.8,6.5,31.3-9,40.9-22.6
		c48.8-69.5,97.6-139,146.4-208.5c6.7-9.5,14.8-19.9,26.7-21.6c14.6-2.1,27.1,9.9,35.5,21.5c68.5,93.7,61.5,223.4,128.7,318
		L224.1,666.1z"/>
</g>
<g>
	<g>
		<path class="st1" d="M879.4,485.7c18.4,10,30.8,29.4,30.8,51.8c0,32.5-26.4,58.9-58.9,58.9c-25.1,0-46.5-15.7-55-37.8L879.4,485.7
			z"/>
	</g>
	<g>
		<circle class="st2" cx="788.4" cy="465.7" r="93.2"/>
	</g>
	<g>
		<g>
			<path class="st1" d="M788.4,649.8c-1.2,0-2.1-1-2.1-2.1v-182c0-1.2,1-2.1,2.1-2.1c1.2,0,2.1,1,2.1,2.1v182
				C790.5,648.9,789.5,649.8,788.4,649.8z"/>
		</g>
		<g>
			<path class="st1" d="M788.4,516.1c-0.5,0-1.1-0.2-1.5-0.6l-26.1-26.1c-0.8-0.8-0.8-2.2,0-3c0.8-0.8,2.2-0.8,3,0l26.1,26.1
				c0.8,0.8,0.8,2.2,0,3C789.4,515.8,788.9,516.1,788.4,516.1z"/>
		</g>
		<g>
			<path class="st1" d="M788.4,540.3c-0.5,0-1.1-0.2-1.5-0.6l-26.1-26.1c-0.8-0.8-0.8-2.2,0-3c0.8-0.8,2.2-0.8,3,0l26.1,26.1
				c0.8,0.8,0.8,2.2,0,3C789.4,540.1,788.9,540.3,788.4,540.3z"/>
		</g>
		<g>
			<path class="st1" d="M851,649.8c-1-0.2-1.7-1.2-1.7-2.2v-95.4c0-1.2,0.9-2.2,2-2.2c1.2-0.1,2.2,0.9,2.2,2.1v95.6
				C853.5,649,852.3,650,851,649.8z"/>
		</g>
		<g>
			<path class="st1" d="M851.4,566c-0.5,0-1.1-0.2-1.5-0.6c-0.8-0.8-0.8-2.2,0-3l18.8-18.8c0.8-0.8,2.2-0.8,3,0c0.8,0.8,0.8,2.2,0,3
				l-18.8,18.8C852.4,565.8,851.9,566,851.4,566z"/>
		</g>
		<g>
			<path class="st1" d="M851.4,583.5c-0.5,0-1.1-0.2-1.5-0.6c-0.8-0.8-0.8-2.2,0-3l18.8-18.8c0.8-0.8,2.2-0.8,3,0
				c0.8,0.8,0.8,2.2,0,3l-18.8,18.8C852.4,583.3,851.9,583.5,851.4,583.5z"/>
		</g>
	</g>
</g>
<g>
	<g>
		<circle class="st2" cx="224.8" cy="513.4" r="98.2"/>
	</g>
	<g>
		<g>
			<path class="st1" d="M224.8,707.4c-1.2,0-2.2-1-2.2-2.2V513.4c0-1.2,1-2.2,2.2-2.2c1.2,0,2.2,1,2.2,2.2v191.8
				C227,706.4,226,707.4,224.8,707.4z"/>
		</g>
		<g>
			<path class="st1" d="M224.8,566.5c-0.6,0-1.1-0.2-1.6-0.7l-27.5-27.5c-0.9-0.9-0.9-2.3,0-3.2c0.9-0.9,2.3-0.9,3.2,0l27.5,27.5
				c0.9,0.9,0.9,2.3,0,3.2C225.9,566.3,225.4,566.5,224.8,566.5z"/>
		</g>
		<g>
			<path class="st1" d="M224.8,592c-0.6,0-1.1-0.2-1.6-0.7l-27.5-27.5c-0.9-0.9-0.9-2.3,0-3.2c0.9-0.9,2.3-0.9,3.2,0l27.5,27.5
				c0.9,0.9,0.9,2.3,0,3.2C225.9,591.8,225.4,592,224.8,592z"/>
		</g>
	</g>
</g>
<g>
	<path class="st3" d="M988.8,1004.6H103.2c-27.5,0-39.8-22.3-27.4-49.7l118.4-264.1c12.3-27.5,37.2-49.7,55.7-49.7h594.1
		c18.4,0,43.2,22.3,55.4,49.7l117.2,264.1C1028.7,982.3,1016.3,1004.6,988.8,1004.6z"/>
</g>
<g>
	<polygon class="st4" points="552.6,639.6 609.3,677.9 551.8,714.4 495.2,676.1 	"/>
	<polygon class="st5" points="609.3,677.9 672.3,716.4 614.9,752.8 551.9,714.4 	"/>
	<polygon class="st4" points="672.3,716.4 741.9,754.9 684.4,791.4 614.9,752.8 	"/>
	<polygon class="st5" points="741.9,754.9 817.8,793.6 760.4,830.1 684.4,791.4 	"/>
	<polygon class="st4" points="817.8,793.6 900.2,832.4 842.8,868.9 760.4,830.1 	"/>
	<polygon class="st5" points="495.2,676.1 551.8,714.4 488,750.7 431.4,712.4 	"/>
	<polygon class="st4" points="551.9,714.4 614.9,752.8 551,789.1 488,750.7 	"/>
	<polygon class="st5" points="614.9,752.8 684.4,791.4 620.6,827.7 551.1,789.1 	"/>
	<polygon class="st4" points="684.4,791.4 760.4,830.1 696.5,866.4 620.6,827.7 	"/>
	<polygon class="st5" points="760.4,830.1 842.8,868.9 779,905.2 696.5,866.4 	"/>
	<polygon class="st4" points="431.4,712.4 488,750.7 417.7,786.9 361,748.6 	"/>
	<polygon class="st5" points="488,750.7 551,789.1 480.7,825.3 417.7,786.9 	"/>
	<polygon class="st4" points="551.1,789.1 620.6,827.7 550.3,863.9 480.7,825.3 	"/>
	<polygon class="st5" points="620.6,827.7 696.5,866.4 626.2,902.6 550.3,863.9 	"/>
	<polygon class="st4" points="696.5,866.4 779,905.2 708.6,941.4 626.2,902.6 	"/>
	<polygon class="st5" points="361,748.6 417.7,786.9 340.9,823 284.3,784.7 	"/>
	<polygon class="st4" points="417.7,786.9 480.7,825.3 404,861.4 340.9,823 	"/>
	<polygon class="st5" points="480.7,825.3 550.3,863.9 473.5,900 404,861.4 	"/>
	<polygon class="st4" points="550.3,863.9 626.2,902.6 549.5,938.7 473.5,900 	"/>
	<polygon class="st5" points="626.2,902.6 708.6,941.4 631.9,977.5 549.5,938.7 	"/>
	<polygon class="st4" points="284.3,784.7 340.9,823 257.7,858.9 201.1,820.6 	"/>
	<polygon class="st5" points="340.9,823 404,861.4 320.7,897.4 257.7,858.9 	"/>
	<polygon class="st4" points="404,861.4 473.5,900 390.3,935.9 320.7,897.4 	"/>
	<polygon class="st5" points="473.5,900 549.5,938.7 466.2,974.6 390.3,935.9 	"/>
	<polygon class="st4" points="549.5,938.7 631.9,977.5 548.7,1013.4 466.2,974.6 	"/>
</g>
<g>
	<path class="st6" d="M333.3,755.1c-48.6-10.2-67.7-13.5-67.7-13.5s31.2,34.4,21.9,60.5c47.5,4.2,105.4,9.8,147.1,0
		c-2.9-12.6-2-51.2,11.1-58.2c-22.8,1.9-61.2,3.7-61.2,3.7L333.3,755.1z"/>
	<path class="st7" d="M402.8,684.7c0,0-1.6,61.4,10.5,63.7c-11.3,8.2-104.9,14-115.4,0c5.8-27.6,17.6-99.1,17.6-99.1l32.8-29.7
		l27.3,4.4L402.8,684.7z"/>
	<path class="st8" d="M415.9,676.5c2,5.4,14.5,24.1,54.4-20.4c2.6,2,5.8,5,5.8,5s-64.7,84-77.2,21
		C407.1,679.6,415.9,676.5,415.9,676.5z"/>
	<path class="st7" d="M366.2,619.1c13.8-1.4,48.8,7.1,58.8,56c-8.4,14.8-25.4,22.5-25.4,22.5L366.2,619.1z"/>
	<path class="st8" d="M365.3,605.2c2.1,9.7,2.7,17.8,4.8,19c-2.4,6-6.6,15.4-6.6,15.4l-20.6-14l4.9-20.4H365.3z"/>
	<g>
		<path class="st6" d="M338.4,536.2c-9.4,1.6-19.9,12.5-21.2,22.7c-1.3,10.2,2.3,20.5,7.7,29c1.9,3,4.1,6,7,7.9s6.5,2.9,9.7,1.6
			c3.4-1.3,5.7-4.7,6.8-8.4c1.1-3.7,1.2-7.6,1.2-11.4c0.1-10.4,0.1-21.4-4.7-30.3L338.4,536.2z"/>
	</g>
	<path class="st9" d="M384.5,577.6c0,18.8-6.9,34-21.6,34s-31.5-5.4-31.5-28.6c0-18.8,11.9-39.4,26.5-39.4
		C372.6,543.6,384.5,558.8,384.5,577.6z"/>
	<g>
		<path class="st6" d="M340.1,568.7c-7,2.4-10.1-3-12.6-10.8c-2.6-7.8,1-17.6,7.7-21c4.8-2.4,10.3-1.8,15.3-0.5
			c5.1,1.3,10.2,3.1,15.4,2.9c5.2-0.2,10.8-2.9,12.9-8.3c5.9,2.4,10,9.3,10.3,16.4s-2.8,14.2-7.6,18.8c-4.8,4.6-11.1,7-17.3,7.3
			c-5.3,0.3-16.4-0.4-20-5L340.1,568.7z"/>
	</g>
	
		<ellipse transform="matrix(0.963 -0.2693 0.2693 0.963 -143.5076 109.8007)" class="st9" cx="328.4" cy="577.9" rx="3.7" ry="7.1"/>
	<path class="st6" d="M345.2,564.2c0.3,4.4-3.3,11.8-11.7,13.4c-0.9,3.5,0,9.4,0,9.4l-3,1l-1.7-35.7L345.2,564.2z"/>
	<g>
		<path class="st8" d="M265.6,741.6c-27.8-8.3-65.9,16.1-51.9,37.2s77.3,23.6,77.3,23.6S305.8,753.6,265.6,741.6z"/>
		<path class="st10" d="M208.3,767.1c-4.2,21,12.2,52.4,130.1,51.7c18.9,3.8,46.1,14.2,46.1,14.2s3.9-18.9-7.7-22.3
			c-11.6-3.3-8.5-15.1-13.3-14.9c-9,2.6-20.5,6.6-20.5,6.6s-73.6-49-118.9-48.3C216.4,754.3,209.8,759.6,208.3,767.1z"/>
	</g>
	<g>
		<path class="st8" d="M448.4,741.6c27.8-8.3,65.9,16.1,51.9,37.2s-77.3,23.6-77.3,23.6S408.2,753.6,448.4,741.6z"/>
		<path class="st9" d="M505.7,767.1c4.2,21-12.2,52.4-130.1,51.7c-18.9,3.8-46.1,14.2-46.1,14.2s-3.9-18.9,7.7-22.3
			c11.6-3.3,8.5-15.1,13.3-14.9c9,2.6,20.5,6.6,20.5,6.6s73.6-49,118.9-48.3C497.6,754.3,504.2,759.6,505.7,767.1z"/>
	</g>
	<g>
		<g>
			<polygon class="st11" points="371,689.3 484.1,650.1 486.1,655.5 375.6,701.4 			"/>
			<polygon class="st11" points="513.1,651.1 488.1,660.6 476.1,656.2 482.1,644.9 507.2,635.4 			"/>
		</g>
		
			<ellipse transform="matrix(0.9345 -0.3559 0.3559 0.9345 -226.3573 172.9294)" class="st11" cx="356.8" cy="701.6" rx="35.6" ry="28.1"/>
		
			<ellipse transform="matrix(0.9345 -0.3559 0.3559 0.9345 -226.3573 172.9294)" class="st11" cx="356.8" cy="701.6" rx="28.1" ry="22.2"/>
	</g>
	<path class="st8" d="M286,678.9c-7.6,14.1-24.1,66.5,17.6,47.9s44.8-23.3,44.8-23.3l-7.6-5.8c0,0-70.2,35.9-36.7-12.8
		C294.6,675.5,286,678.9,286,678.9z"/>
	<polygon class="st8" points="340.7,697.8 341.7,688.9 345.5,688.9 352.4,678.4 354.5,681.6 358.8,693.4 348.3,703.6 341.9,704.6 	
		"/>
	<path class="st7" d="M349.6,617.7c-17.5,2.2-40.6-0.9-54.4,32c-13.8,32.9-13.8,32.9-13.8,32.9l27.1,8.6l18.2-38.1L349.6,617.7z"/>
	<path class="st8" d="M478.5,661.2L478,655l-10-2.5l-6.2,5.1c-1.7,1.4-1.8,3.9-0.3,5.5l4.6,4.8L478.5,661.2z"/>
</g>
<g>
	<path class="st8" d="M811.1,876.8c0,0,25.9,7.3,28.4,8c-7.3,1.2-35.7,0-35.7,0l-1-8.8L811.1,876.8z"/>
	<path class="st12" d="M663.1,792c0,0-43.1-34.5-55.1-31.7c-12,2.8-117.4,85-117.4,85h36.6c0,0,71.4-39.8,79.2-53.2
		c15.2,20.3,42,36.9,42,36.9L663.1,792z"/>
	<path class="st13" d="M422,835.8c0,0-16.1-24.4-19.7-26.7c-7.3,1.5-1.6,26.6,2.6,33.5c0.3,4.4-5.7,21,22.4,10.5
		C430,841.2,422,835.8,422,835.8z"/>
	<path class="st8" d="M651.8,822c-4.1-2.4-229.8,13.8-229.8,13.8l5.4,17.3c0,0,94.1,2.7,107.1-2c20.5,2.4,103.9,6.7,103.9,6.7
		L651.8,822z"/>
	<path class="st6" d="M712.4,792h-49.2c0,0-29.4,46.1-26.6,65c19.5,9.8,167.2,51.9,133.4-60.4C745.8,793.9,712.4,792,712.4,792z"/>
	<path class="st7" d="M752.7,685.8c-10.3,0.5-25.5-6.9-35.3,7.3S693.9,792,693.9,792h9.5l16.7-54.8l3.2,10.8c0,0,1.6,35.2-10.9,44.1
		c8,12.7,39.3,21.5,56.4,7.3c6.1-25.1,12-63.9,12-63.9l20.3,142.2h12.7c0,0-3.2-176-12.1-185.9s-27.7-10.3-27.7-10.3L752.7,685.8z"
		/>
	<path class="st6" d="M796.1,622.8c0,19.4-16.8,40.5-37.8,40.5s-38.1-25.6-38.1-45c0-19.4,17.1-32.7,38.1-32.7
		S796.1,603.5,796.1,622.8z"/>
	<path class="st8" d="M749.9,661.9c0,0,0.2,27-1.6,30.2c3.3,6.6,4.4,8.7,4.4,8.7l21.3-19.5l-6.1-24.2L749.9,661.9z"/>
	<path class="st9" d="M724.7,606.7c2.1,27.6,6.8,62.4,21.8,61.9s27-11.4,28.6-16.1c1.6-4.7,5.7-36.4,5.7-36.4L724.7,606.7z"/>
	<g>
		<path class="st6" d="M720.2,606.2c1-3.3,4-5.8,7.3-6.9c3.3-1.2,6.8-1.2,10.3-1.2c7.5,0,14.9,0.4,22.3,1.2
			c5.9,0.6,11.8,1.5,17.2,3.8c5.4,2.3,10.4,6.1,13.1,11.3c2.8,5.5,2.7,12.6-0.9,17.7c-3.5,5.1-10.6,7.7-16.4,5.6
			c-8-2.9-12-13-20.3-14.8c-5.4-1.2-10.9,1.7-16.5,1.8c-5.1,0.2-10.3-2.1-13.6-6C719.5,614.8,720.2,606.2,720.2,606.2z"/>
	</g>
	<g>
		<path class="st6" d="M764.2,588.9c17.5-14.4,43.9-16.5,63.5-5.2c7.9,4.6,14.6,11,22.1,16.1c7.5,5.1,16.6,9.1,25.6,7.6
			c6.4-1,12.1-4.7,18.1-7.1c8.5-3.5,18.1-4.7,26.9-2s16.4,9.6,18.8,18.4c1.9,7,0.4,14.6-2.8,21.1c-6.3,13-19.6,22.3-33.9,23.9
			c-14.4,1.6-29.3-4.6-38.4-15.8c-5-6.2-8.5-14-15.2-18.5c-7.9-5.2-18.2-4.5-27.5-2.8c-9.3,1.7-19,4-28,1.4
			c-7.3-2.2-13.5-7.5-18-13.6s-7.6-13.3-10.7-20.3L764.2,588.9z"/>
	</g>
	<ellipse transform="matrix(0.5 -0.866 0.866 0.5 -169.9977 996.6201)" class="st9" cx="778.1" cy="645.5" rx="5.4" ry="3.7"/>
	<circle class="st11" cx="776.2" cy="650.6" r="2.1"/>
</g>
<circle class="st11" cx="252.2" cy="231.1" r="83.5"/>
<path class="st7" d="M501.4,329.3c-2-2.4-4.1-4.7-6.4-6.7c-2.3-2.1-4.8-3.8-7.4-5.3l-2-1.1l-2.1-0.9c-0.7-0.3-1.4-0.5-2.1-0.8
	l-1.1-0.4c-0.4-0.1-0.7-0.2-1.1-0.3c-0.7-0.2-1.4-0.4-2.2-0.5l-2.2-0.4l-2.2-0.2c-0.7-0.1-1.5-0.1-2.2-0.1c-0.7-0.1-1.5,0-2.2,0
	l-1.1,0c-0.4,0-0.7,0.1-1.1,0.1c-1.5,0.1-3,0.3-4.5,0.5c-3,0.4-5.9,1.1-8.8,2c-2.9,0.9-5.7,1.9-8.5,3.2c-1.4,0.6-2.7,1.3-4.1,2
	c-1.3,0.7-2.7,1.5-3.9,2.2l-2.2,1.4l-1.1-2.4c-0.2-0.5-0.6-1.2-0.9-1.8c-0.3-0.6-0.7-1.2-1.1-1.8c-0.8-1.2-1.6-2.3-2.5-3.4
	c-1.8-2.2-3.9-4.1-6.2-5.8c-2.3-1.6-4.8-2.9-7.4-3.8c-2.7-0.9-5.5-1.3-8.3-1.4c-1.4-0.1-2.9,0.1-4.3,0.2c-1.4,0.2-2.9,0.4-4.3,0.7
	c-2.9,0.6-5.6,1.6-8.4,2.6c-5.5,2.2-10.7,5.2-15.8,8.4c4.5-4,9.5-7.6,14.9-10.5c2.8-1.3,5.6-2.6,8.6-3.5c1.5-0.5,3-0.8,4.6-1.1
	c1.6-0.2,3.1-0.4,4.7-0.5c3.2-0.1,6.4,0.2,9.5,1.1c3.1,0.9,6.1,2.3,8.7,4.1c2.7,1.8,5.1,4,7.1,6.4c1.1,1.2,2,2.5,2.9,3.8
	c0.4,0.7,0.9,1.3,1.3,2c0.4,0.7,0.8,1.4,1.2,2.2l-3.3-1c1.5-0.9,2.8-1.6,4.3-2.4c1.4-0.7,2.9-1.4,4.4-2c2.9-1.3,6-2.4,9.1-3.2
	c3.1-0.8,6.3-1.5,9.5-1.9c1.6-0.2,3.2-0.3,4.8-0.3c0.4,0,0.8,0,1.2,0l1.2,0c0.8,0,1.6,0.1,2.4,0.2c6.5,0.5,12.8,2.7,18.1,6.3
	c2.6,1.8,5.1,3.9,7.1,6.3c1.1,1.1,2,2.4,3,3.7c0.5,0.6,0.9,1.3,1.3,2L501.4,329.3z"/>
<path class="st7" d="M811.9,189.7c-2.2-1.3-4.4-2.6-6.8-3.6c-2.3-1-4.7-1.7-7.2-2.2l-1.8-0.3l-1.9-0.2c-0.6-0.1-1.2,0-1.9,0l-0.9,0
	c-0.3,0-0.6,0-0.9,0.1c-0.6,0.1-1.2,0.1-1.8,0.2l-1.8,0.3l-1.8,0.4c-0.6,0.1-1.2,0.3-1.8,0.5c-0.6,0.2-1.2,0.4-1.8,0.6l-0.9,0.3
	c-0.3,0.1-0.6,0.2-0.9,0.4c-1.2,0.4-2.3,1-3.4,1.5c-2.2,1.1-4.3,2.4-6.3,3.9c-2,1.4-4,3-5.8,4.7c-0.9,0.8-1.8,1.7-2.7,2.6
	c-0.9,0.9-1.7,1.8-2.4,2.7l-1.4,1.7l-1.5-1.6c-0.3-0.3-0.8-0.8-1.2-1.2c-0.4-0.4-0.9-0.8-1.3-1.1c-0.9-0.7-1.9-1.4-2.9-2
	c-2-1.3-4.1-2.2-6.3-2.9c-2.2-0.7-4.5-1-6.8-1c-2.3,0-4.6,0.4-6.9,1.1c-1.1,0.3-2.2,0.8-3.3,1.3c-1.1,0.6-2.1,1-3.2,1.7
	c-2.1,1.2-4,2.7-5.9,4.2c-3.7,3.2-7,6.9-10.2,10.7c2.5-4.3,5.4-8.4,8.9-12.1c1.8-1.8,3.7-3.5,5.8-5c1-0.8,2.2-1.4,3.3-2.1
	c1.2-0.6,2.3-1.2,3.6-1.6c2.5-0.9,5.1-1.5,7.7-1.6c2.7-0.1,5.3,0.2,7.9,0.9c2.6,0.7,5,1.8,7.3,3.1c1.1,0.7,2.2,1.4,3.3,2.2
	c0.5,0.4,1,0.8,1.5,1.3c0.5,0.4,1,0.9,1.5,1.4l-2.9,0.1c0.9-1.1,1.8-2,2.7-3c0.9-0.9,1.9-1.9,2.9-2.7c2-1.8,4-3.4,6.2-4.9
	c2.2-1.5,4.5-2.8,6.9-3.9c1.2-0.5,2.4-1.1,3.7-1.5c0.3-0.1,0.6-0.2,0.9-0.3l1-0.3c0.6-0.2,1.3-0.4,1.9-0.5
	c5.2-1.3,10.7-1.2,15.8,0.2c2.5,0.8,5,1.7,7.2,3.1c1.2,0.6,2.2,1.4,3.3,2.1c0.5,0.4,1,0.8,1.5,1.2L811.9,189.7z"/>
<polygon class="st14" points="209.1,802.4 207.4,835.2 210.7,835.2 "/>
<polygon class="st15" points="212.4,820.7 210.7,835.2 214.1,835.2 "/>
<polygon class="st15" points="218.3,811.3 214.1,835.2 222.6,835.2 "/>
<polygon class="st15" points="126.6,920 122.4,959.8 130.8,959.8 "/>
<polygon class="st15" points="134,930.4 130.8,959.8 137.2,959.8 "/>
<g>
	<polygon class="st14" points="940.1,856.4 937.4,889.2 942.8,889.2 	"/>
	<polygon class="st15" points="945.5,874.7 942.8,889.2 948.2,889.2 	"/>
</g>
<g>
	<polygon class="st14" points="699.2,941.4 695.7,983.2 702.6,983.2 	"/>
	<polygon class="st15" points="706,964.7 702.6,983.2 709.5,983.2 	"/>
</g>
<g>
	<path class="st0" d="M708.8,162.1C682.3,137,650,130,610.2,131.9c-6.5,0.3-13.8,1.4-17.6,5.9c-3.8,4.5,0.3,12.7,6.7,11.5
		c-45-21.3-98.7-29.3-149.6-22.3c-5.6,0.8-11.8,2-15.1,5.9s-1.1,11,4.6,11c-41.9-17.4-117.3,16.2-109.8,19.1L708.8,162.1z"/>
</g>
<g>
	<path class="st0" d="M989,283.6c-19.5-18.5-43.2-23.7-72.5-22.3c-4.8,0.2-10.2,1-12.9,4.3c-2.8,3.3,0.2,9.4,4.9,8.4
		c-33.1-15.7-72.6-21.6-110.1-16.4c-4.1,0.6-8.7,1.5-11.1,4.3s-0.8,8.1,3.4,8.1c-30.8-12.8-86.3,11.9-80.8,14L989,283.6z"/>
</g>
</svg>
