<svg xmlns="http://www.w3.org/2000/svg" viewBox="0 0 500 500"><g id="freepik--background-complete--inject-81"><rect y="382.4" width="500" height="0.25" style="fill:#ebebeb"></rect><rect x="416.78" y="398.49" width="33.12" height="0.25" style="fill:#ebebeb"></rect><rect x="322.53" y="401.21" width="8.69" height="0.25" style="fill:#ebebeb"></rect><rect x="396.59" y="389.21" width="19.19" height="0.25" style="fill:#ebebeb"></rect><rect x="52.46" y="390.89" width="43.19" height="0.25" style="fill:#ebebeb"></rect><rect x="104.56" y="390.89" width="6.33" height="0.25" style="fill:#ebebeb"></rect><rect x="131.47" y="395.11" width="93.68" height="0.25" style="fill:#ebebeb"></rect><path d="M237,337.8H43.91a5.71,5.71,0,0,1-5.7-5.71V60.66A5.71,5.71,0,0,1,43.91,55H237a5.71,5.71,0,0,1,5.71,5.71V332.09A5.71,5.71,0,0,1,237,337.8ZM43.91,55.2a5.46,5.46,0,0,0-5.45,5.46V332.09a5.46,5.46,0,0,0,5.45,5.46H237a5.47,5.47,0,0,0,5.46-5.46V60.66A5.47,5.47,0,0,0,237,55.2Z" style="fill:#ebebeb"></path><path d="M453.31,337.8H260.21a5.72,5.72,0,0,1-5.71-5.71V60.66A5.72,5.72,0,0,1,260.21,55h193.1A5.71,5.71,0,0,1,459,60.66V332.09A5.71,5.71,0,0,1,453.31,337.8ZM260.21,55.2a5.47,5.47,0,0,0-5.46,5.46V332.09a5.47,5.47,0,0,0,5.46,5.46h193.1a5.47,5.47,0,0,0,5.46-5.46V60.66a5.47,5.47,0,0,0-5.46-5.46Z" style="fill:#ebebeb"></path><path d="M154.63,221.32a9.78,9.78,0,0,0-.21-2.17c-.85-4.5,3.65-3.78,7.18-4.39,2.75-.48-6.65-7.7-1.44-10,1-.44,2-.92,2.32-1.94.39-1.34-.79-3.11-2.26-4a9.28,9.28,0,0,0-4.67-1.1c-1.23-1.14-.89-2.86-.27-4s1.41-2.49.71-3.93c-1.07-2.17-4.14-2.25-6.24-1.82-1.14-1.32-1.53-3-2.3-4.45s-2.35-3-3.85-2.87-1.88,1.81-3.22,2.14c-1.56.39-3.35-1.06-4.92-2.15s-4-1.77-4.54-.34c-.32.86.3,2.06,0,2.9-.6,1.47-3.11.56-4.79-.48s-4.17-2-4.8-.54a5,5,0,0,0-.18,1.51c-.19,1.92-2,2.88-3.36,4.11s-2,3.69-.25,5.19c.86.75,2.13,1.05,2.71,2,.72,1.18-.24,2.24-1,3.06-1.26,1.35-.54,5.4,1.85,6.51,1,.46,2.35.6,2.81,1.58s-.31,1.55-.74,2.22c-1.16,1.84.36,5.16,2.84,6.22.57.25,1.25.44,1.57,1a2.11,2.11,0,0,1,.17,1.18,6.16,6.16,0,0,0,.36,2.25,1.32,1.32,0,0,0,.45.71,1.34,1.34,0,0,0,.72.19c3.09.13,4.29-.94,6.82,1.7a3,3,0,0,0,.8.67,2.23,2.23,0,0,0,.9.21c2.14.17,3.19-1.13,5.05-1.37,2.58-.34,3.49,1,6.11,2.12C153,224.89,154.56,223.82,154.63,221.32Z" style="fill:#f5f5f5"></path><path d="M118.49,217.54a10.48,10.48,0,0,0-.22-2.17c-.85-4.5,3.65-3.78,7.18-4.4,2.76-.47-6.65-7.69-1.44-10,1-.44,2-.93,2.32-1.94.39-1.34-.79-3.11-2.26-4a9.25,9.25,0,0,0-4.67-1.1c-1.23-1.14-.89-2.86-.27-4s1.41-2.49.71-3.93c-1.06-2.17-4.14-2.25-6.24-1.82-1.14-1.32-1.53-3-2.3-4.45s-2.35-3-3.84-2.87-1.89,1.81-3.23,2.14c-1.56.39-3.35-1.06-4.92-2.15s-4-1.77-4.54-.34c-.32.86.3,2.06,0,2.9-.6,1.47-3.11.56-4.79-.48s-4.17-2-4.8-.54a5,5,0,0,0-.18,1.51c-.19,1.92-2,2.88-3.36,4.11s-2,3.69-.25,5.19c.86.74,2.14,1.05,2.71,2,.72,1.18-.24,2.24-1,3.06-1.27,1.35-.55,5.4,1.84,6.51,1,.46,2.35.6,2.81,1.58s-.31,1.55-.73,2.22c-1.17,1.84.35,5.16,2.83,6.22.57.25,1.25.44,1.57,1a2,2,0,0,1,.17,1.18,6.16,6.16,0,0,0,.36,2.25,1.38,1.38,0,0,0,.45.71,1.34,1.34,0,0,0,.72.19c3.09.13,4.29-.94,6.82,1.7a3,3,0,0,0,.8.67,2.23,2.23,0,0,0,.9.21c2.14.17,3.19-1.13,5-1.37,2.58-.34,3.49,1,6.11,2.12C116.89,221.11,118.41,220,118.49,217.54Z" style="fill:#f5f5f5"></path><path d="M109.54,195.26a10.41,10.41,0,0,0-.21-2.17c-.85-4.5,3.65-3.78,7.18-4.4,2.75-.47-6.66-7.69-1.44-10,1-.44,2-.93,2.31-1.94.39-1.34-.78-3.11-2.26-4a9.25,9.25,0,0,0-4.67-1.1c-1.23-1.14-.89-2.86-.26-4s1.41-2.49.7-3.93c-1.06-2.17-4.13-2.25-6.23-1.82-1.15-1.32-1.54-3-2.31-4.45s-2.35-3-3.84-2.87-1.89,1.81-3.23,2.14c-1.55.39-3.35-1.06-4.91-2.15s-4-1.77-4.54-.34c-.32.86.3,2.06,0,2.9-.6,1.47-3.11.56-4.78-.48s-4.17-2-4.81-.54a5.26,5.26,0,0,0-.17,1.51c-.19,1.92-2,2.88-3.37,4.11s-2,3.69-.25,5.19c.87.74,2.14,1.05,2.71,2,.72,1.18-.23,2.24-1,3.06-1.26,1.35-.54,5.4,1.85,6.51,1,.46,2.34.6,2.8,1.58s-.31,1.55-.73,2.22c-1.16,1.84.35,5.16,2.84,6.22a3.11,3.11,0,0,1,1.56,1,2,2,0,0,1,.17,1.18,6.38,6.38,0,0,0,.36,2.25,1.38,1.38,0,0,0,.45.71,1.34,1.34,0,0,0,.72.19c3.09.13,4.3-.94,6.82,1.7a3.22,3.22,0,0,0,.81.67,2.23,2.23,0,0,0,.89.21c2.15.17,3.2-1.13,5.06-1.37,2.58-.34,3.48,1,6.1,2.12C107.94,198.83,109.47,197.76,109.54,195.26Z" style="fill:#f5f5f5"></path><path d="M89.11,206.36a9.67,9.67,0,0,0-.21-2.17c-.85-4.5,3.65-3.79,7.18-4.4,2.75-.48-6.65-7.69-1.44-10,1-.43,2-.92,2.31-1.93.4-1.35-.78-3.12-2.25-4A9.28,9.28,0,0,0,90,182.75c-1.23-1.14-.88-2.86-.26-4s1.41-2.49.71-3.93c-1.07-2.17-4.14-2.25-6.24-1.83-1.14-1.31-1.54-3-2.3-4.44s-2.35-3.05-3.85-2.87-1.88,1.81-3.22,2.14c-1.56.39-3.35-1.07-4.92-2.16s-4-1.77-4.54-.33c-.32.86.3,2.06,0,2.9-.6,1.47-3.11.56-4.79-.48s-4.17-2-4.8-.54a4.93,4.93,0,0,0-.18,1.51c-.19,1.92-2,2.88-3.36,4.11s-2,3.68-.25,5.19c.86.74,2.13,1,2.71,2,.71,1.18-.24,2.24-1,3.05-1.26,1.36-.54,5.41,1.85,6.51,1,.47,2.35.61,2.81,1.59s-.31,1.54-.74,2.22c-1.16,1.84.35,5.16,2.84,6.22a3,3,0,0,1,1.56,1,2,2,0,0,1,.18,1.17,6.23,6.23,0,0,0,.35,2.26,1.4,1.4,0,0,0,.46.71,1.3,1.3,0,0,0,.71.18c3.1.14,4.3-.94,6.83,1.71a3.21,3.21,0,0,0,.8.67,2.41,2.41,0,0,0,.9.21c2.14.17,3.19-1.13,5.05-1.38,2.58-.33,3.48,1,6.11,2.13C87.52,209.92,89,208.86,89.11,206.36Z" style="fill:#f5f5f5"></path><path d="M64.4,201.23a11.14,11.14,0,0,0-.21-2.17c-.86-4.5,3.65-3.78,7.17-4.39,2.76-.48-6.65-7.7-1.44-10,1-.43,2-.92,2.32-1.94.39-1.34-.79-3.11-2.26-4a9.25,9.25,0,0,0-4.67-1.1c-1.23-1.14-.89-2.86-.27-4s1.42-2.5.71-3.94c-1.06-2.17-4.14-2.24-6.24-1.82-1.14-1.31-1.53-3-2.3-4.45s-2.35-3-3.84-2.86-1.89,1.8-3.23,2.13c-1.56.39-3.35-1.06-4.92-2.15s-4-1.77-4.54-.34c-.32.86.3,2.06,0,2.91-.6,1.46-3.11.55-4.79-.49s-4.16-2-4.8-.54a5,5,0,0,0-.18,1.51c-.19,1.92-2,2.88-3.36,4.11s-2,3.69-.25,5.19c.87.75,2.14,1,2.71,2,.72,1.19-.23,2.24-1,3.06-1.27,1.35-.55,5.4,1.84,6.51,1,.46,2.35.61,2.81,1.58s-.31,1.55-.73,2.22c-1.17,1.85.35,5.17,2.84,6.22a3.22,3.22,0,0,1,1.56,1,2,2,0,0,1,.17,1.18,6.38,6.38,0,0,0,.36,2.25,1.38,1.38,0,0,0,.45.71,1.34,1.34,0,0,0,.72.19c3.09.13,4.3-.94,6.82,1.7a3,3,0,0,0,.8.67,2.23,2.23,0,0,0,.9.21c2.14.17,3.19-1.13,5-1.37,2.58-.34,3.49,1,6.11,2.12C62.8,204.8,64.33,203.73,64.4,201.23Z" style="fill:#f5f5f5"></path><path d="M70.3,226.15a8.44,8.44,0,0,0-.17-1.71c-.67-3.54,2.88-3,5.65-3.46,2.17-.38-5.23-6.06-1.13-7.89.76-.34,1.59-.73,1.82-1.53.31-1.05-.61-2.45-1.77-3.14a7.29,7.29,0,0,0-3.68-.86,2.58,2.58,0,0,1-.21-3.17c.49-.92,1.11-2,.56-3.1-.84-1.71-3.26-1.77-4.92-1.44a16.35,16.35,0,0,1-1.81-3.5c-.6-1.17-1.85-2.4-3-2.25s-1.49,1.42-2.55,1.68c-1.22.3-2.63-.84-3.87-1.7s-3.15-1.39-3.57-.26c-.25.68.23,1.62,0,2.28-.47,1.16-2.44.44-3.76-.38s-3.29-1.56-3.79-.42a4.18,4.18,0,0,0-.14,1.19c-.15,1.51-1.61,2.26-2.65,3.23s-1.57,2.91-.19,4.09c.68.59,1.68.82,2.13,1.57.57.93-.18,1.76-.78,2.4-1,1.07-.43,4.26,1.46,5.13.79.36,1.84.48,2.2,1.24s-.24,1.22-.57,1.75c-.92,1.45.27,4.07,2.23,4.9a2.39,2.39,0,0,1,1.23.77,1.56,1.56,0,0,1,.14.92,4.87,4.87,0,0,0,.28,1.78,1.06,1.06,0,0,0,.36.55,1,1,0,0,0,.56.15c2.43.11,3.38-.74,5.37,1.34a2.32,2.32,0,0,0,.64.53,1.76,1.76,0,0,0,.7.17c1.69.13,2.52-.89,4-1.09,2-.26,2.74.81,4.81,1.68C69,229,70.24,228.12,70.3,226.15Z" style="fill:#f5f5f5"></path><path d="M55,217.54a10.41,10.41,0,0,0-.21-2.17c-.85-4.5,3.65-3.78,7.18-4.4,2.75-.47-6.66-7.69-1.44-10,1-.44,2-.93,2.31-1.94.4-1.34-.78-3.11-2.25-4a9.31,9.31,0,0,0-4.68-1.1c-1.23-1.14-.89-2.86-.26-4s1.41-2.49.71-3.93c-1.07-2.17-4.14-2.25-6.24-1.82-1.14-1.32-1.54-3-2.3-4.45s-2.35-3-3.85-2.87-1.89,1.81-3.23,2.14c-1.55.39-3.34-1.06-4.91-2.15s-4-1.77-4.54-.34c-.32.86.3,2.06,0,2.9-.59,1.47-3.1.56-4.78-.48s-4.17-2-4.81-.54a5.3,5.3,0,0,0-.17,1.51c-.19,1.92-2.05,2.88-3.37,4.11s-2,3.69-.24,5.19c.86.74,2.13,1.05,2.71,2,.71,1.18-.24,2.24-1,3.06-1.26,1.35-.54,5.4,1.85,6.51,1,.46,2.34.6,2.8,1.58s-.3,1.55-.73,2.22c-1.16,1.84.35,5.16,2.84,6.22a3.11,3.11,0,0,1,1.56,1,2,2,0,0,1,.17,1.18,6.38,6.38,0,0,0,.36,2.25,1.38,1.38,0,0,0,.45.71,1.34,1.34,0,0,0,.72.19c3.09.13,4.3-.94,6.82,1.7a3.22,3.22,0,0,0,.81.67,2.23,2.23,0,0,0,.89.21c2.15.17,3.2-1.13,5.06-1.37,2.58-.34,3.48,1,6.1,2.12C53.43,221.11,55,220,55,217.54Z" style="fill:#f5f5f5"></path><path d="M82.28,179a9.78,9.78,0,0,0-.21-2.17c-.85-4.5,3.65-3.78,7.18-4.39,2.75-.48-6.65-7.7-1.44-10,1-.44,2-.92,2.31-1.94.4-1.34-.78-3.11-2.25-4a9.29,9.29,0,0,0-4.68-1.1c-1.23-1.14-.88-2.86-.26-4s1.41-2.5.71-3.94c-1.07-2.17-4.14-2.24-6.24-1.82-1.14-1.31-1.54-2.95-2.3-4.45s-2.35-3.05-3.85-2.86-1.88,1.8-3.22,2.13c-1.56.39-3.35-1.06-4.92-2.15s-4-1.77-4.54-.34c-.32.86.3,2.06,0,2.91-.6,1.46-3.11.55-4.79-.49s-4.17-2-4.8-.54a5,5,0,0,0-.18,1.51c-.19,1.92-2,2.88-3.36,4.11s-2,3.69-.25,5.19c.86.75,2.13,1,2.71,2,.71,1.19-.24,2.24-1,3.06-1.26,1.35-.54,5.4,1.85,6.51,1,.46,2.35.61,2.81,1.58s-.31,1.55-.74,2.22c-1.16,1.84.36,5.17,2.84,6.22.57.25,1.25.44,1.57,1a2.11,2.11,0,0,1,.17,1.18,6.15,6.15,0,0,0,.35,2.25,1.4,1.4,0,0,0,.46.71,1.31,1.31,0,0,0,.71.19c3.1.13,4.3-.94,6.83,1.7a2.83,2.83,0,0,0,.8.67,2.23,2.23,0,0,0,.9.21c2.14.17,3.19-1.13,5-1.37,2.58-.34,3.48,1,6.11,2.12C80.69,182.52,82.21,181.45,82.28,179Z" style="fill:#f5f5f5"></path><path d="M112.78,180.48a11.14,11.14,0,0,0-.21-2.17c-.86-4.5,3.65-3.78,7.17-4.39,2.76-.48-6.65-7.7-1.44-10,1-.43,2-.92,2.32-1.94.39-1.34-.79-3.11-2.26-4a9.25,9.25,0,0,0-4.67-1.1c-1.23-1.14-.89-2.86-.27-4s1.42-2.5.71-3.94c-1.06-2.17-4.14-2.24-6.24-1.82-1.14-1.31-1.53-3-2.3-4.45s-2.35-3-3.84-2.86-1.89,1.8-3.23,2.13c-1.56.39-3.35-1.06-4.92-2.15s-4-1.77-4.54-.34c-.32.86.3,2.06,0,2.91-.6,1.46-3.11.55-4.79-.49s-4.16-2-4.8-.54a5,5,0,0,0-.18,1.51c-.19,1.92-2,2.88-3.36,4.11s-2,3.69-.25,5.19c.87.75,2.14,1,2.71,2,.72,1.19-.23,2.24-1,3.06-1.27,1.35-.55,5.4,1.84,6.51,1,.46,2.35.61,2.81,1.58s-.31,1.55-.73,2.22c-1.17,1.85.35,5.17,2.84,6.22a3.22,3.22,0,0,1,1.56,1,2,2,0,0,1,.17,1.18,6.38,6.38,0,0,0,.36,2.25,1.38,1.38,0,0,0,.45.71,1.34,1.34,0,0,0,.72.19c3.09.13,4.29-.94,6.82,1.7a3,3,0,0,0,.8.67,2.23,2.23,0,0,0,.9.21c2.14.17,3.19-1.13,5-1.37,2.58-.34,3.49,1,6.11,2.12C111.18,184.05,112.71,183,112.78,180.48Z" style="fill:#f5f5f5"></path><path d="M134.12,192.73a10.29,10.29,0,0,0-.21-2.17c-.86-4.5,3.65-3.79,7.17-4.4,2.76-.48-6.65-7.69-1.43-10,1-.43,2-.92,2.31-1.93.39-1.35-.79-3.12-2.26-4a9.24,9.24,0,0,0-4.67-1.09c-1.23-1.14-.89-2.86-.27-4s1.42-2.49.71-3.93c-1.06-2.17-4.13-2.25-6.24-1.83-1.14-1.31-1.53-3-2.3-4.44s-2.35-3.06-3.84-2.87-1.89,1.8-3.23,2.14c-1.55.38-3.35-1.07-4.91-2.16s-4-1.77-4.54-.33c-.32.86.29,2.06,0,2.9-.6,1.47-3.11.56-4.78-.48s-4.17-2-4.81-.54a4.93,4.93,0,0,0-.17,1.51c-.2,1.92-2,2.88-3.37,4.11s-2,3.68-.25,5.19c.87.74,2.14,1,2.71,2,.72,1.18-.23,2.24-1,3.05-1.27,1.36-.55,5.41,1.85,6.51,1,.47,2.34.61,2.8,1.59s-.31,1.54-.73,2.22c-1.17,1.84.35,5.16,2.84,6.22a3,3,0,0,1,1.56,1,2,2,0,0,1,.17,1.17,6.47,6.47,0,0,0,.36,2.26,1.38,1.38,0,0,0,.45.71,1.33,1.33,0,0,0,.72.18c3.09.14,4.3-.94,6.82,1.71a3.25,3.25,0,0,0,.81.67,2.52,2.52,0,0,0,.89.21c2.15.17,3.19-1.13,5.05-1.38,2.58-.33,3.49,1,6.11,2.13C132.52,196.29,134.05,195.23,134.12,192.73Z" style="fill:#f5f5f5"></path><path d="M132.43,208.21s-5,10.74-6.76,14.15S116,247,117.69,261c.18,1.5.31,2.79.41,3.92,15,37.2,31,105.27,33.72,116.93h-18C130.41,368.75,99,248.62,97.47,245c-1.56-3.88-12.76-18.66-25.88-24.73s-28.15-26.17-28.15-26.17h3.7s9.93,12.32,21.38,19.14a51,51,0,0,0,5,2.58A58.1,58.1,0,0,1,72,194.05l2.45,1.84c0,11,2.14,18,4,22a55.89,55.89,0,0,1,11.76,6.71c6.86-13.08,5.1-43,5.1-43l2.94,1.41a147,147,0,0,1,1.23,18.34c0,7.75-1.92,22.32-2.87,28.94a96.55,96.55,0,0,1,11.21,14.27,4,4,0,0,1,.68-1.17c5.12-5.92,10.54-33.91,10.54-33.91,1.38-6.51-7.46-23.59-7.46-23.59H115l5.27,14.94,6.36-9.44,1.91,1.31-6.3,11.8-1,14.94,9-13.63Z" style="fill:#f5f5f5"></path><path d="M245.26,265.81a6.94,6.94,0,0,0-.15-1.56c-.62-3.26,2.64-2.74,5.19-3.18,2-.35-4.81-5.56-1-7.25.7-.31,1.46-.66,1.67-1.4.29-1-.57-2.25-1.63-2.88a6.63,6.63,0,0,0-3.38-.8,2.37,2.37,0,0,1-.19-2.91c.45-.84,1-1.8.51-2.84-.77-1.57-3-1.62-4.51-1.32a14.59,14.59,0,0,1-1.66-3.21c-.56-1.08-1.7-2.21-2.78-2.07s-1.36,1.3-2.33,1.54c-1.13.28-2.42-.77-3.56-1.56s-2.89-1.28-3.28-.24c-.23.62.22,1.49,0,2.1-.43,1.06-2.25.4-3.46-.35s-3-1.43-3.47-.39a3.51,3.51,0,0,0-.13,1.09c-.14,1.39-1.48,2.08-2.43,3a2.52,2.52,0,0,0-.18,3.75c.62.54,1.54.76,2,1.44.51.86-.17,1.62-.72,2.21-.92,1-.4,3.91,1.33,4.71.73.33,1.7.44,2,1.14s-.22,1.12-.53,1.61c-.84,1.33.26,3.73,2,4.5a2.1,2.1,0,0,1,1.13.7,1.41,1.41,0,0,1,.13.85,4.43,4.43,0,0,0,.26,1.62,1,1,0,0,0,.32.52,1,1,0,0,0,.52.13c2.24.1,3.11-.68,4.93,1.23a2.11,2.11,0,0,0,.59.49,1.62,1.62,0,0,0,.64.15c1.55.12,2.31-.82,3.66-1,1.86-.25,2.52.74,4.41,1.53C244.11,268.39,245.21,267.62,245.26,265.81Z" style="fill:#f5f5f5"></path><path d="M219.13,263.08a7.66,7.66,0,0,0-.15-1.57c-.62-3.25,2.64-2.74,5.19-3.18,2-.34-4.81-5.56-1-7.24.7-.31,1.45-.67,1.67-1.4.28-1-.57-2.25-1.63-2.89a6.77,6.77,0,0,0-3.38-.79,2.37,2.37,0,0,1-.19-2.91c.45-.84,1-1.8.51-2.84-.77-1.57-3-1.63-4.51-1.32a14.38,14.38,0,0,1-1.66-3.21c-.56-1.08-1.7-2.21-2.78-2.08s-1.37,1.31-2.34,1.55c-1.12.28-2.42-.77-3.55-1.56s-2.89-1.28-3.28-.24c-.23.62.21,1.48,0,2.1-.44,1.06-2.25.4-3.46-.35s-3-1.44-3.48-.39a3.51,3.51,0,0,0-.12,1.09c-.14,1.39-1.48,2.08-2.44,3a2.53,2.53,0,0,0-.18,3.75c.63.54,1.55.76,2,1.44.52.85-.17,1.62-.71,2.21-.92,1-.4,3.9,1.33,4.7.73.34,1.7.44,2,1.15s-.22,1.12-.53,1.6c-.84,1.34.25,3.74,2,4.5a2.27,2.27,0,0,1,1.13.7,1.41,1.41,0,0,1,.12.85,4.91,4.91,0,0,0,.26,1.63,1,1,0,0,0,.33.51,1,1,0,0,0,.52.14c2.23.1,3.11-.68,4.93,1.23a2.7,2.7,0,0,0,.58.49,1.92,1.92,0,0,0,.65.15c1.55.12,2.31-.82,3.65-1,1.87-.24,2.52.75,4.42,1.54C218,265.66,219.08,264.89,219.13,263.08Z" style="fill:#f5f5f5"></path><path d="M212.66,247a6.94,6.94,0,0,0-.15-1.56c-.61-3.26,2.64-2.74,5.19-3.18,2-.35-4.81-5.56-1-7.25.7-.31,1.46-.66,1.67-1.4.29-1-.56-2.25-1.63-2.88a6.73,6.73,0,0,0-3.38-.8,2.37,2.37,0,0,1-.19-2.91c.45-.84,1-1.8.51-2.84-.77-1.57-3-1.62-4.51-1.32a14.59,14.59,0,0,1-1.66-3.21c-.55-1.08-1.7-2.21-2.78-2.07s-1.36,1.3-2.33,1.54c-1.13.28-2.42-.77-3.56-1.56s-2.89-1.28-3.28-.24c-.23.62.22,1.49,0,2.1-.43,1.06-2.25.4-3.46-.35s-3-1.43-3.47-.39a3.83,3.83,0,0,0-.13,1.09c-.14,1.39-1.48,2.08-2.43,3a2.53,2.53,0,0,0-.18,3.76c.62.53,1.54.75,2,1.43.52.86-.17,1.62-.72,2.21-.91,1-.4,3.91,1.33,4.71.73.33,1.7.44,2,1.14s-.22,1.12-.53,1.61c-.84,1.33.26,3.73,2.05,4.5a2.1,2.1,0,0,1,1.13.7,1.41,1.41,0,0,1,.13.85,4.52,4.52,0,0,0,.26,1.63,1,1,0,0,0,.32.51.9.9,0,0,0,.52.13c2.24.1,3.11-.68,4.93,1.23a2.11,2.11,0,0,0,.59.49,1.66,1.66,0,0,0,.64.15c1.55.13,2.31-.82,3.66-1,1.86-.25,2.52.74,4.41,1.53C211.51,249.55,212.61,248.78,212.66,247Z" style="fill:#f5f5f5"></path><path d="M197.9,255a7.66,7.66,0,0,0-.15-1.57c-.62-3.26,2.63-2.74,5.18-3.18,2-.35-4.81-5.56-1-7.24.7-.32,1.46-.67,1.68-1.4.28-1-.57-2.25-1.64-2.89a6.61,6.61,0,0,0-3.37-.79,2.37,2.37,0,0,1-.2-2.91c.46-.85,1-1.81.52-2.85-.77-1.56-3-1.62-4.51-1.32a14.41,14.41,0,0,1-1.67-3.21c-.55-1.08-1.7-2.21-2.78-2.07s-1.36,1.3-2.33,1.54c-1.12.28-2.42-.77-3.55-1.55s-2.9-1.28-3.28-.25c-.24.62.21,1.49,0,2.1-.43,1.06-2.24.4-3.46-.35s-3-1.43-3.47-.39a3.88,3.88,0,0,0-.13,1.09c-.13,1.39-1.47,2.08-2.43,3a2.53,2.53,0,0,0-.18,3.75c.63.53,1.55.75,2,1.44.52.85-.17,1.62-.72,2.2-.91,1-.39,3.91,1.34,4.71.72.34,1.69.44,2,1.14s-.23,1.12-.53,1.61c-.85,1.33.25,3.73,2.05,4.5a2.2,2.2,0,0,1,1.13.7,1.48,1.48,0,0,1,.12.85,4.48,4.48,0,0,0,.26,1.63,1,1,0,0,0,.33.51,1,1,0,0,0,.52.14c2.23.09,3.1-.68,4.93,1.23a2.22,2.22,0,0,0,.58.48,1.51,1.51,0,0,0,.65.15c1.55.13,2.31-.81,3.65-1,1.87-.24,2.52.74,4.41,1.54C196.74,257.57,197.85,256.8,197.9,255Z" style="fill:#f5f5f5"></path><path d="M180,251.29a7.66,7.66,0,0,0-.15-1.57c-.62-3.25,2.64-2.74,5.18-3.18,2-.34-4.8-5.56-1-7.24.7-.31,1.45-.67,1.67-1.4.28-1-.57-2.25-1.63-2.89a6.77,6.77,0,0,0-3.38-.79,2.37,2.37,0,0,1-.19-2.91c.45-.84,1-1.8.51-2.84-.77-1.57-3-1.63-4.51-1.32a14.38,14.38,0,0,1-1.66-3.21c-.56-1.08-1.7-2.21-2.78-2.08s-1.37,1.31-2.34,1.55c-1.12.28-2.42-.77-3.55-1.56s-2.9-1.28-3.28-.24c-.23.62.21,1.48,0,2.1-.43,1.06-2.24.4-3.45-.35s-3-1.43-3.48-.39a3.51,3.51,0,0,0-.12,1.09c-.14,1.39-1.48,2.08-2.44,3a2.53,2.53,0,0,0-.18,3.75c.63.54,1.55.76,2,1.44.52.85-.17,1.62-.72,2.21-.91,1-.39,3.9,1.34,4.7.73.34,1.69.44,2,1.15s-.23,1.12-.53,1.6c-.84,1.34.25,3.74,2.05,4.5a2.27,2.27,0,0,1,1.13.7,1.41,1.41,0,0,1,.12.85,4.67,4.67,0,0,0,.26,1.63,1,1,0,0,0,.33.51,1,1,0,0,0,.52.14c2.23.1,3.11-.68,4.93,1.23a2.7,2.7,0,0,0,.58.49,1.86,1.86,0,0,0,.65.15c1.55.12,2.31-.82,3.65-1,1.87-.24,2.52.75,4.42,1.54C178.88,253.87,180,253.1,180,251.29Z" style="fill:#f5f5f5"></path><path d="M184.3,269.3a6.36,6.36,0,0,0-.12-1.23c-.49-2.56,2.07-2.16,4.08-2.51,1.57-.27-3.78-4.37-.82-5.7.55-.24,1.15-.52,1.32-1.1a2.35,2.35,0,0,0-1.28-2.27,5.34,5.34,0,0,0-2.66-.63,1.87,1.87,0,0,1-.16-2.29,2.37,2.37,0,0,0,.41-2.24c-.61-1.23-2.36-1.28-3.55-1a11,11,0,0,1-1.31-2.53c-.44-.84-1.34-1.74-2.19-1.63s-1.08,1-1.84,1.22-1.9-.61-2.8-1.23-2.28-1-2.58-.19c-.18.49.17,1.17,0,1.65-.34.84-1.77.32-2.72-.27s-2.37-1.13-2.74-.31a2.68,2.68,0,0,0-.09.86c-.11,1.09-1.17,1.64-1.92,2.34a2,2,0,0,0-.14,3c.49.43,1.21.6,1.54,1.14s-.13,1.27-.56,1.74c-.72.77-.31,3.07,1.05,3.7.57.27,1.33.35,1.59.9s-.17.88-.41,1.27c-.67,1.05.2,2.94,1.61,3.54a1.74,1.74,0,0,1,.89.55,1.12,1.12,0,0,1,.1.67,3.88,3.88,0,0,0,.2,1.28.72.72,0,0,0,.26.4.69.69,0,0,0,.41.11c1.76.08,2.45-.53,3.88,1a1.83,1.83,0,0,0,.46.38,1.19,1.19,0,0,0,.51.12c1.22.1,1.82-.64,2.88-.78,1.47-.19,2,.59,3.47,1.21C183.39,271.33,184.26,270.73,184.3,269.3Z" style="fill:#f5f5f5"></path><path d="M173.25,263.08a7,7,0,0,0-.15-1.57c-.62-3.25,2.64-2.74,5.19-3.18,2-.34-4.81-5.56-1-7.24.7-.31,1.46-.67,1.67-1.4.28-1-.57-2.25-1.63-2.89a6.75,6.75,0,0,0-3.38-.79,2.37,2.37,0,0,1-.19-2.91c.45-.84,1-1.8.51-2.84-.77-1.57-3-1.63-4.51-1.32a14.81,14.81,0,0,1-1.66-3.21c-.56-1.08-1.7-2.21-2.78-2.08S163.91,235,163,235.2c-1.13.28-2.42-.77-3.56-1.56s-2.89-1.28-3.28-.24c-.23.62.22,1.48,0,2.1-.43,1.06-2.25.4-3.46-.35s-3-1.44-3.48-.39a3.51,3.51,0,0,0-.12,1.09c-.14,1.39-1.48,2.08-2.43,3a2.52,2.52,0,0,0-.18,3.75c.62.54,1.54.76,2,1.44.51.85-.17,1.62-.72,2.21-.92,1-.4,3.9,1.33,4.7.73.34,1.7.44,2,1.15s-.22,1.12-.53,1.6c-.84,1.34.25,3.74,2.05,4.5a2.27,2.27,0,0,1,1.13.7,1.42,1.42,0,0,1,.13.85,4.45,4.45,0,0,0,.26,1.63,1,1,0,0,0,.32.51,1,1,0,0,0,.52.14c2.24.1,3.11-.68,4.93,1.23a2.7,2.7,0,0,0,.58.49,1.92,1.92,0,0,0,.65.15c1.55.12,2.31-.82,3.65-1,1.87-.24,2.52.75,4.42,1.54C172.1,265.66,173.2,264.89,173.25,263.08Z" style="fill:#f5f5f5"></path><path d="M193,235.19a7.66,7.66,0,0,0-.15-1.57c-.62-3.26,2.64-2.74,5.19-3.18,2-.35-4.81-5.56-1-7.25.7-.31,1.45-.66,1.67-1.4.28-1-.57-2.25-1.63-2.88a6.67,6.67,0,0,0-3.38-.79,2.38,2.38,0,0,1-.19-2.92c.45-.84,1-1.8.51-2.84-.77-1.57-3-1.62-4.51-1.32a14.17,14.17,0,0,1-1.66-3.21c-.56-1.08-1.7-2.21-2.78-2.07s-1.37,1.3-2.34,1.54c-1.12.28-2.42-.77-3.55-1.56s-2.89-1.28-3.28-.24c-.23.62.21,1.49,0,2.1-.43,1.06-2.24.4-3.45-.35s-3-1.43-3.48-.39a3.51,3.51,0,0,0-.12,1.09c-.14,1.39-1.48,2.08-2.44,3a2.55,2.55,0,0,0-.18,3.76c.63.53,1.55.75,2,1.43.52.86-.17,1.62-.72,2.21-.91,1-.39,3.91,1.34,4.71.73.33,1.69.44,2,1.14s-.23,1.12-.53,1.61c-.84,1.33.25,3.73,2.05,4.5a2.2,2.2,0,0,1,1.13.7,1.4,1.4,0,0,1,.12.85,5,5,0,0,0,.26,1.63,1.08,1.08,0,0,0,.33.51.9.9,0,0,0,.52.13c2.23.1,3.11-.68,4.93,1.23a2.23,2.23,0,0,0,.58.49,1.67,1.67,0,0,0,.65.15c1.55.13,2.31-.82,3.65-1,1.87-.25,2.52.74,4.42,1.53C191.81,237.76,192.91,237,193,235.19Z" style="fill:#f5f5f5"></path><path d="M215,236.29a7,7,0,0,0-.15-1.57c-.61-3.25,2.64-2.74,5.19-3.18,2-.34-4.81-5.56-1-7.24.7-.31,1.46-.67,1.67-1.4.29-1-.56-2.25-1.63-2.89a6.72,6.72,0,0,0-3.38-.79,2.37,2.37,0,0,1-.19-2.91c.45-.84,1-1.8.51-2.84-.77-1.57-3-1.63-4.51-1.32a14.81,14.81,0,0,1-1.66-3.21c-.56-1.08-1.7-2.21-2.78-2.08s-1.36,1.31-2.33,1.55c-1.13.28-2.42-.77-3.56-1.56s-2.89-1.28-3.28-.24c-.23.62.22,1.48,0,2.1-.43,1.06-2.25.4-3.46-.35s-3-1.44-3.47-.39a3.51,3.51,0,0,0-.13,1.09c-.14,1.39-1.48,2.08-2.43,3a2.52,2.52,0,0,0-.18,3.75c.62.54,1.54.76,2,1.44.52.85-.17,1.62-.72,2.21-.92,1-.4,3.9,1.33,4.7.73.34,1.7.44,2,1.15s-.22,1.12-.53,1.6c-.84,1.34.26,3.74,2.05,4.5a2.23,2.23,0,0,1,1.13.7,1.42,1.42,0,0,1,.13.85,4.45,4.45,0,0,0,.26,1.63,1,1,0,0,0,.32.51,1,1,0,0,0,.52.14c2.24.1,3.11-.68,4.93,1.23a2.53,2.53,0,0,0,.59.49,1.81,1.81,0,0,0,.64.15c1.55.12,2.31-.82,3.66-1,1.86-.24,2.52.75,4.41,1.54C213.85,238.87,215,238.1,215,236.29Z" style="fill:#f5f5f5"></path><path d="M230.43,245.14a7.07,7.07,0,0,0-.15-1.57c-.62-3.25,2.64-2.73,5.19-3.17,2-.35-4.81-5.57-1-7.25.7-.31,1.46-.66,1.67-1.4.28-1-.57-2.25-1.63-2.88a6.65,6.65,0,0,0-3.38-.8,2.37,2.37,0,0,1-.19-2.91c.45-.84,1-1.8.51-2.84-.77-1.57-3-1.62-4.51-1.32a14.59,14.59,0,0,1-1.66-3.21c-.56-1.08-1.7-2.21-2.78-2.08s-1.37,1.31-2.33,1.55c-1.13.28-2.43-.77-3.56-1.56s-2.89-1.28-3.28-.24c-.23.62.22,1.49,0,2.1-.44,1.06-2.25.4-3.46-.35s-3-1.43-3.48-.39a3.51,3.51,0,0,0-.12,1.09c-.14,1.39-1.48,2.08-2.44,3a2.53,2.53,0,0,0-.17,3.75c.62.54,1.54.76,2,1.44.51.86-.17,1.62-.72,2.21-.92,1-.4,3.91,1.33,4.71.73.33,1.7.44,2,1.14s-.22,1.12-.53,1.61c-.84,1.33.25,3.73,2.05,4.5a2.14,2.14,0,0,1,1.13.7,1.39,1.39,0,0,1,.13.84,4.45,4.45,0,0,0,.26,1.63,1,1,0,0,0,.32.52,1,1,0,0,0,.52.13c2.24.1,3.11-.68,4.93,1.23a2.23,2.23,0,0,0,.58.49,1.92,1.92,0,0,0,.65.15c1.55.12,2.31-.82,3.65-1,1.87-.25,2.52.74,4.42,1.53C229.28,247.72,230.38,247,230.43,245.14Z" style="fill:#f5f5f5"></path><path d="M229.21,256.33s-3.59,7.77-4.88,10.23-7,17.81-5.77,28c.13,1.08.22,2,.29,2.83,10.81,26.89,22.43,76.1,24.38,84.53h-13c-2.49-9.5-25.23-96.34-26.3-99-1.13-2.81-9.22-13.49-18.71-17.88s-20.35-18.92-20.35-18.92h2.67S174.73,255,183,259.93a36.88,36.88,0,0,0,3.64,1.87,42,42,0,0,1-1.1-15.7l1.77,1.33c0,7.93,1.55,13,2.87,15.93a40.46,40.46,0,0,1,8.5,4.85c5-9.46,3.69-31.08,3.69-31.08l2.12,1a105.08,105.08,0,0,1,.89,13.27c0,5.59-1.38,16.13-2.07,20.92a69.2,69.2,0,0,1,8.1,10.31,2.69,2.69,0,0,1,.49-.84c3.7-4.29,7.62-24.52,7.62-24.52,1-4.7-5.39-17-5.39-17h2.5l3.81,10.8,4.6-6.82,1.38.94-4.55,8.53-.74,10.8,6.5-9.85Z" style="fill:#f5f5f5"></path><path d="M303.93,301.37a5,5,0,0,0-.11-1.09c-.43-2.25,1.83-1.9,3.6-2.2,1.38-.24-3.34-3.86-.72-5,.48-.21,1-.46,1.16-1a2.05,2.05,0,0,0-1.13-2,4.72,4.72,0,0,0-2.35-.55,1.66,1.66,0,0,1-.13-2,2.11,2.11,0,0,0,.36-2c-.54-1.09-2.08-1.13-3.13-.92a10.43,10.43,0,0,1-1.16-2.22c-.38-.75-1.17-1.54-1.92-1.44s-.95.9-1.62,1.07-1.68-.53-2.47-1.08-2-.89-2.27-.17c-.16.43.15,1,0,1.46-.3.73-1.55.28-2.4-.25s-2.09-1-2.41-.27a2.73,2.73,0,0,0-.08.76c-.1,1-1,1.44-1.69,2.06a1.76,1.76,0,0,0-.12,2.61c.43.37,1.07.52,1.35,1s-.11,1.13-.49,1.53c-.64.68-.28,2.71.92,3.27.51.23,1.18.3,1.41.79s-.16.78-.37,1.12c-.58.92.18,2.59,1.42,3.12a1.56,1.56,0,0,1,.79.48,1,1,0,0,1,.08.59,3.22,3.22,0,0,0,.18,1.13.77.77,0,0,0,.23.36.67.67,0,0,0,.36.09c1.55.07,2.16-.47,3.42.86a1.8,1.8,0,0,0,.4.33,1.1,1.1,0,0,0,.45.11c1.08.08,1.61-.57,2.54-.69,1.29-.17,1.75.51,3.06,1.06C303.13,303.16,303.89,302.63,303.93,301.37Z" style="fill:#f5f5f5"></path><path d="M285.8,299.48a4.91,4.91,0,0,0-.11-1.09c-.42-2.26,1.83-1.9,3.6-2.21,1.38-.24-3.33-3.85-.72-5,.49-.22,1-.46,1.16-1a2,2,0,0,0-1.13-2,4.51,4.51,0,0,0-2.34-.55,1.65,1.65,0,0,1-.14-2,2.09,2.09,0,0,0,.36-2c-.53-1.09-2.08-1.13-3.13-.92a10,10,0,0,1-1.15-2.23c-.39-.75-1.18-1.53-1.93-1.44s-.95.91-1.62,1.07-1.68-.53-2.46-1.08-2-.88-2.28-.16c-.16.43.15,1,0,1.45-.3.74-1.56.28-2.4-.24s-2.09-1-2.41-.27a2.62,2.62,0,0,0-.09.75c-.1,1-1,1.45-1.69,2.07a1.75,1.75,0,0,0-.12,2.6c.43.37,1.07.52,1.36,1s-.12,1.12-.5,1.53c-.64.68-.28,2.71.92,3.26.51.24,1.18.31,1.41.8s-.15.77-.37,1.11c-.58.93.18,2.59,1.43,3.12a1.52,1.52,0,0,1,.78.49,1,1,0,0,1,.09.59,3,3,0,0,0,.18,1.13.62.62,0,0,0,.22.35.68.68,0,0,0,.36.1c1.55.06,2.16-.48,3.42.85a1.65,1.65,0,0,0,.41.34,1.18,1.18,0,0,0,.45.1c1.07.09,1.6-.57,2.53-.69,1.29-.17,1.75.52,3.06,1.07C285,301.26,285.76,300.73,285.8,299.48Z" style="fill:#f5f5f5"></path><path d="M281.31,288.3a5.42,5.42,0,0,0-.1-1.08c-.43-2.26,1.83-1.9,3.6-2.21,1.38-.24-3.34-3.86-.72-5,.48-.22,1-.47,1.16-1a2.08,2.08,0,0,0-1.14-2,4.68,4.68,0,0,0-2.34-.55,1.64,1.64,0,0,1-.13-2,2.08,2.08,0,0,0,.35-2c-.53-1.09-2.07-1.13-3.12-.91a10.06,10.06,0,0,1-1.16-2.23c-.38-.75-1.18-1.53-1.93-1.44s-.94.9-1.62,1.07-1.67-.53-2.46-1.08-2-.89-2.28-.17c-.16.43.15,1,0,1.46-.3.73-1.56.28-2.4-.24s-2.09-1-2.41-.27a2.62,2.62,0,0,0-.09.75c-.09,1-1,1.45-1.68,2.06a1.76,1.76,0,0,0-.13,2.61c.44.37,1.07.52,1.36,1s-.12,1.13-.5,1.54c-.63.67-.27,2.71.93,3.26.5.23,1.17.31,1.41.79s-.16.78-.37,1.12c-.59.92.17,2.59,1.42,3.12a1.56,1.56,0,0,1,.79.48,1,1,0,0,1,.08.59,3.18,3.18,0,0,0,.18,1.13.77.77,0,0,0,.23.36.59.59,0,0,0,.36.09c1.55.07,2.15-.47,3.42.86a1.57,1.57,0,0,0,.4.33,1.06,1.06,0,0,0,.45.11c1.08.09,1.6-.57,2.53-.69,1.3-.17,1.75.52,3.07,1.07C280.51,290.09,281.28,289.56,281.31,288.3Z" style="fill:#f5f5f5"></path><path d="M271.07,293.87a5.51,5.51,0,0,0-.1-1.09c-.43-2.26,1.83-1.9,3.59-2.21,1.39-.23-3.33-3.85-.72-5,.49-.22,1-.46,1.16-1a2.05,2.05,0,0,0-1.13-2,4.6,4.6,0,0,0-2.34-.55,1.63,1.63,0,0,1-.13-2,2.11,2.11,0,0,0,.35-2c-.53-1.09-2.07-1.13-3.13-.92a10,10,0,0,1-1.15-2.23c-.39-.74-1.18-1.53-1.93-1.44s-1,.91-1.62,1.08-1.68-.54-2.46-1.08-2-.89-2.28-.17c-.16.43.15,1,0,1.45-.3.74-1.56.28-2.4-.24s-2.09-1-2.41-.27a2.64,2.64,0,0,0-.09.76c-.09,1-1,1.44-1.69,2.06a1.75,1.75,0,0,0-.12,2.6c.43.37,1.07.53,1.36,1s-.12,1.12-.5,1.53c-.63.68-.27,2.71.93,3.27.5.23,1.17.3,1.4.79s-.15.78-.36,1.11c-.59.93.17,2.59,1.42,3.12.28.13.62.22.78.49a1,1,0,0,1,.09.59,3.22,3.22,0,0,0,.18,1.13.62.62,0,0,0,.22.35.68.68,0,0,0,.36.1c1.55.07,2.16-.47,3.43.85a1.45,1.45,0,0,0,.4.34,1.18,1.18,0,0,0,.45.1c1.07.09,1.6-.56,2.53-.69,1.3-.16,1.75.52,3.06,1.07C270.27,295.66,271,295.12,271.07,293.87Z" style="fill:#f5f5f5"></path><path d="M258.68,291.3a4.91,4.91,0,0,0-.11-1.09c-.43-2.26,1.83-1.9,3.6-2.21,1.38-.23-3.34-3.85-.72-5,.48-.22,1-.46,1.16-1a2.05,2.05,0,0,0-1.13-2,4.62,4.62,0,0,0-2.35-.55,1.66,1.66,0,0,1-.13-2,2.11,2.11,0,0,0,.36-2c-.54-1.09-2.08-1.13-3.13-.92a10.06,10.06,0,0,1-1.16-2.23c-.38-.74-1.18-1.53-1.92-1.44s-1,.91-1.62,1.08-1.68-.54-2.47-1.08-2-.89-2.27-.17c-.16.43.15,1,0,1.45-.3.74-1.56.28-2.4-.24s-2.09-1-2.41-.27a2.65,2.65,0,0,0-.08.76c-.1,1-1,1.44-1.69,2.06a1.76,1.76,0,0,0-.13,2.6c.44.37,1.08.52,1.36,1s-.11,1.12-.49,1.53c-.64.68-.28,2.71.92,3.27.51.23,1.18.3,1.41.79s-.16.78-.37,1.11c-.58.93.18,2.59,1.42,3.12a1.51,1.51,0,0,1,.79.49,1,1,0,0,1,.08.59,3.25,3.25,0,0,0,.18,1.13.7.7,0,0,0,.23.35.68.68,0,0,0,.36.1c1.55.07,2.16-.47,3.42.85a1.61,1.61,0,0,0,.4.34,1.22,1.22,0,0,0,.45.1c1.08.09,1.6-.56,2.54-.69,1.29-.16,1.75.52,3.06,1.07C257.88,293.08,258.64,292.55,258.68,291.3Z" style="fill:#f5f5f5"></path><path d="M261.64,303.79a4.56,4.56,0,0,0-.09-.85c-.33-1.78,1.44-1.5,2.84-1.74,1.09-.19-2.63-3-.57-4,.38-.17.8-.36.91-.76s-.31-1.23-.89-1.58a3.58,3.58,0,0,0-1.84-.43,1.3,1.3,0,0,1-.11-1.59,1.63,1.63,0,0,0,.28-1.55c-.42-.86-1.63-.89-2.46-.72a7.94,7.94,0,0,1-.91-1.76c-.3-.59-.93-1.21-1.52-1.13s-.74.71-1.27.84-1.32-.42-1.94-.85-1.58-.7-1.8-.13c-.12.34.12.81,0,1.15-.24.57-1.23.21-1.89-.2s-1.65-.78-1.9-.21a2,2,0,0,0-.07.6c-.07.76-.81,1.13-1.33,1.62a1.38,1.38,0,0,0-.1,2c.35.29.85.41,1.07.79s-.09.88-.39,1.2a1.94,1.94,0,0,0,.73,2.57c.4.19.93.24,1.11.63s-.12.61-.29.87c-.46.73.14,2,1.12,2.46a1.36,1.36,0,0,1,.62.38.77.77,0,0,1,.06.47,2.56,2.56,0,0,0,.15.89.55.55,0,0,0,.17.28.5.5,0,0,0,.29.07c1.22.05,1.7-.37,2.69.67a1.35,1.35,0,0,0,.32.27.89.89,0,0,0,.35.08c.85.07,1.26-.45,2-.54,1-.13,1.37.4,2.41.84C261,305.2,261.61,304.78,261.64,303.79Z" style="fill:#f5f5f5"></path><path d="M254,299.48a5.58,5.58,0,0,0-.11-1.09c-.43-2.26,1.83-1.9,3.6-2.21,1.38-.24-3.34-3.85-.72-5,.48-.22,1-.46,1.16-1a2.08,2.08,0,0,0-1.13-2,4.52,4.52,0,0,0-2.35-.55,1.66,1.66,0,0,1-.13-2,2.08,2.08,0,0,0,.35-2c-.53-1.09-2.07-1.13-3.12-.92a10.06,10.06,0,0,1-1.16-2.23c-.38-.75-1.18-1.53-1.93-1.44s-.94.91-1.61,1.07-1.68-.53-2.47-1.08-2-.88-2.28-.16c-.16.43.15,1,0,1.45-.3.74-1.56.28-2.4-.24s-2.09-1-2.41-.27a2.31,2.31,0,0,0-.08.75c-.1,1-1,1.45-1.69,2.07a1.74,1.74,0,0,0-.13,2.6c.44.37,1.07.52,1.36,1s-.12,1.12-.5,1.53c-.63.68-.27,2.71.93,3.26.5.24,1.18.31,1.41.8s-.16.77-.37,1.11c-.58.93.18,2.59,1.42,3.12a1.51,1.51,0,0,1,.79.49,1,1,0,0,1,.08.59,3.25,3.25,0,0,0,.18,1.13.7.7,0,0,0,.23.35.68.68,0,0,0,.36.1c1.55.06,2.15-.48,3.42.85a1.61,1.61,0,0,0,.4.34,1.22,1.22,0,0,0,.45.1c1.08.09,1.6-.57,2.54-.69,1.29-.17,1.74.52,3.06,1.07C253.18,301.26,253.94,300.73,254,299.48Z" style="fill:#f5f5f5"></path><path d="M267.65,280.13a4.91,4.91,0,0,0-.11-1.09c-.43-2.26,1.83-1.9,3.6-2.21,1.38-.24-3.34-3.86-.72-5,.48-.22,1-.46,1.16-1,.2-.68-.4-1.56-1.13-2a4.72,4.72,0,0,0-2.35-.55,1.64,1.64,0,0,1-.13-2,2.13,2.13,0,0,0,.36-2c-.54-1.08-2.08-1.12-3.13-.91a10.06,10.06,0,0,1-1.16-2.23c-.38-.75-1.18-1.53-1.92-1.44s-.95.91-1.62,1.07-1.68-.53-2.47-1.08-2-.88-2.27-.16c-.16.43.15,1,0,1.45-.3.74-1.56.28-2.4-.24s-2.09-1-2.41-.27a2.62,2.62,0,0,0-.08.75c-.1,1-1,1.45-1.69,2.07a1.75,1.75,0,0,0-.13,2.6c.44.37,1.08.52,1.36,1s-.11,1.12-.5,1.53c-.63.68-.27,2.71.93,3.26.51.24,1.18.31,1.41.8s-.16.77-.37,1.11c-.58.92.18,2.59,1.42,3.12a1.51,1.51,0,0,1,.79.49,1,1,0,0,1,.08.59,3.25,3.25,0,0,0,.18,1.13.7.7,0,0,0,.23.35.68.68,0,0,0,.36.1c1.55.06,2.15-.48,3.42.85a1.61,1.61,0,0,0,.4.34,1.22,1.22,0,0,0,.45.1c1.08.09,1.6-.57,2.54-.69,1.29-.17,1.74.52,3.06,1.07C266.85,281.91,267.61,281.38,267.65,280.13Z" style="fill:#f5f5f5"></path><path d="M282.94,280.89a5,5,0,0,0-.11-1.09c-.43-2.25,1.83-1.89,3.6-2.2,1.38-.24-3.34-3.86-.72-5,.48-.22,1-.47,1.16-1a2.05,2.05,0,0,0-1.13-2,4.72,4.72,0,0,0-2.35-.55,1.66,1.66,0,0,1-.13-2,2.11,2.11,0,0,0,.36-2c-.54-1.09-2.08-1.13-3.13-.91a10.5,10.5,0,0,1-1.16-2.23c-.38-.75-1.17-1.53-1.92-1.44s-1,.9-1.62,1.07-1.68-.53-2.47-1.08-2-.89-2.27-.17c-.16.43.15,1,0,1.46-.3.73-1.55.28-2.4-.24s-2.09-1-2.41-.27a2.62,2.62,0,0,0-.08.75c-.1,1-1,1.45-1.69,2.06a1.76,1.76,0,0,0-.12,2.61c.43.37,1.07.52,1.35,1s-.11,1.13-.49,1.54c-.64.67-.28,2.7.92,3.26.51.23,1.18.3,1.41.79s-.16.78-.37,1.12c-.58.92.18,2.59,1.42,3.12a1.56,1.56,0,0,1,.79.48,1,1,0,0,1,.08.59,3.22,3.22,0,0,0,.18,1.13.77.77,0,0,0,.23.36.59.59,0,0,0,.36.09c1.55.07,2.16-.47,3.42.86a1.57,1.57,0,0,0,.4.33,1.06,1.06,0,0,0,.45.11c1.08.08,1.61-.57,2.54-.69,1.29-.17,1.75.51,3.06,1.06C282.14,282.68,282.9,282.15,282.94,280.89Z" style="fill:#f5f5f5"></path><path d="M293.64,287a4.82,4.82,0,0,0-.11-1.08c-.42-2.26,1.83-1.9,3.6-2.21,1.38-.24-3.33-3.86-.72-5,.49-.22,1-.47,1.16-1a2.05,2.05,0,0,0-1.13-2,4.71,4.71,0,0,0-2.34-.55,1.64,1.64,0,0,1-.14-2,2.08,2.08,0,0,0,.36-2c-.54-1.09-2.08-1.13-3.13-.91a10,10,0,0,1-1.15-2.23c-.39-.75-1.18-1.53-1.93-1.44s-.95.9-1.62,1.07-1.68-.53-2.47-1.08-2-.89-2.27-.17c-.16.43.15,1,0,1.46-.3.73-1.56.28-2.4-.24s-2.09-1-2.41-.27a2.31,2.31,0,0,0-.09.75c-.1,1-1,1.45-1.69,2.06a1.76,1.76,0,0,0-.12,2.61c.43.37,1.07.52,1.36,1s-.12,1.13-.5,1.54c-.64.67-.28,2.71.92,3.26.51.23,1.18.31,1.41.79s-.15.78-.37,1.12c-.58.92.18,2.59,1.43,3.12a1.57,1.57,0,0,1,.78.48,1,1,0,0,1,.09.59,3,3,0,0,0,.18,1.13.68.68,0,0,0,.22.36.59.59,0,0,0,.36.09c1.55.07,2.16-.47,3.42.86a1.61,1.61,0,0,0,.41.33,1,1,0,0,0,.45.11c1.07.09,1.6-.57,2.53-.69,1.29-.17,1.75.52,3.06,1.06C292.84,288.82,293.6,288.29,293.64,287Z" style="fill:#f5f5f5"></path><path d="M292.79,294.79s-2.49,5.39-3.39,7.1-4.85,12.36-4,19.4c.09.75.16,1.4.21,2,7.49,18.66,15.55,52.79,16.91,58.64h-9c-1.73-6.59-17.51-66.83-18.25-68.67s-6.4-9.36-13-12.4-14.12-13.12-14.12-13.12H250s5,6.17,10.73,9.59a25.08,25.08,0,0,0,2.52,1.3,29.27,29.27,0,0,1-.77-10.89l1.23.92a27.16,27.16,0,0,0,2,11.05,27.53,27.53,0,0,1,5.9,3.36c3.44-6.56,2.56-21.56,2.56-21.56l1.47.71a72.17,72.17,0,0,1,.62,9.2,130.55,130.55,0,0,1-1.44,14.51,49,49,0,0,1,5.62,7.15,2.21,2.21,0,0,1,.34-.58c2.57-3,5.29-17,5.29-17,.69-3.26-3.74-11.83-3.74-11.83h1.73l2.65,7.49,3.18-4.73,1,.66L287.7,293l-.51,7.5,4.51-6.84Z" style="fill:#f5f5f5"></path><path d="M462.58,178.71a12.81,12.81,0,0,0-.27-2.75c-1.08-5.71,4.63-4.8,9.1-5.58,3.49-.6-8.43-9.75-1.82-12.7,1.23-.55,2.55-1.17,2.93-2.46.5-1.7-1-3.94-2.86-5.06a11.82,11.82,0,0,0-5.92-1.39c-1.56-1.45-1.13-3.62-.34-5.1s1.79-3.16.9-5c-1.35-2.75-5.25-2.85-7.91-2.31-1.45-1.67-1.95-3.75-2.92-5.64s-3-3.87-4.87-3.63-2.4,2.28-4.1,2.71c-2,.49-4.24-1.36-6.23-2.74s-5.08-2.24-5.75-.42c-.41,1.09.37,2.61-.06,3.68-.76,1.86-3.94.7-6.07-.61s-5.28-2.52-6.09-.69a6.26,6.26,0,0,0-.22,1.91c-.25,2.44-2.6,3.66-4.27,5.22s-2.54,4.67-.32,6.58c1.1.94,2.71,1.32,3.44,2.52.91,1.5-.3,2.84-1.26,3.88-1.6,1.71-.69,6.85,2.34,8.25,1.28.59,3,.77,3.56,2s-.39,2-.93,2.81c-1.47,2.34.45,6.55,3.6,7.89a3.9,3.9,0,0,1,2,1.23,2.59,2.59,0,0,1,.22,1.49,8,8,0,0,0,.45,2.86,1.78,1.78,0,0,0,.58.9,1.63,1.63,0,0,0,.91.23c3.91.18,5.44-1.19,8.65,2.16a3.65,3.65,0,0,0,1,.86,3,3,0,0,0,1.13.26c2.72.22,4.05-1.43,6.41-1.74,3.27-.43,4.42,1.3,7.74,2.69C460.56,183.23,462.49,181.88,462.58,178.71Z" style="fill:#ebebeb"></path><path d="M416.75,173.92a13.49,13.49,0,0,0-.27-2.75c-1.08-5.71,4.63-4.81,9.1-5.58,3.49-.6-8.44-9.75-1.83-12.7,1.23-.55,2.56-1.17,2.94-2.46.5-1.7-1-3.94-2.86-5.06A11.73,11.73,0,0,0,417.9,144c-1.56-1.45-1.13-3.63-.34-5.11s1.8-3.16.9-5c-1.35-2.75-5.24-2.85-7.91-2.32-1.44-1.66-1.94-3.74-2.92-5.63s-3-3.87-4.87-3.64-2.39,2.29-4.09,2.71c-2,.49-4.25-1.35-6.23-2.73s-5.08-2.24-5.76-.42c-.41,1.09.38,2.6-.06,3.68-.76,1.85-3.94.7-6.06-.62s-5.29-2.51-6.1-.68a6.59,6.59,0,0,0-.22,1.91c-.24,2.44-2.59,3.65-4.27,5.22s-2.53,4.67-.31,6.58c1.1.94,2.71,1.32,3.44,2.52.9,1.5-.3,2.84-1.26,3.87-1.61,1.72-.7,6.85,2.34,8.26,1.27.59,3,.77,3.55,2s-.39,2-.92,2.82c-1.48,2.34.44,6.55,3.6,7.89a3.94,3.94,0,0,1,2,1.23,2.5,2.5,0,0,1,.21,1.49,8.07,8.07,0,0,0,.46,2.86,1.74,1.74,0,0,0,.57.89,1.6,1.6,0,0,0,.91.24c3.92.17,5.45-1.19,8.65,2.16a3.92,3.92,0,0,0,1,.85,2.92,2.92,0,0,0,1.14.27c2.72.22,4-1.44,6.4-1.74,3.28-.43,4.42,1.3,7.75,2.69C414.72,178.44,416.66,177.09,416.75,173.92Z" style="fill:#ebebeb"></path><path d="M405.4,145.67a12.75,12.75,0,0,0-.26-2.75c-1.08-5.71,4.62-4.8,9.09-5.58,3.5-.6-8.43-9.75-1.82-12.7,1.23-.55,2.56-1.17,2.93-2.46.5-1.7-1-3.94-2.86-5.06a11.7,11.7,0,0,0-5.92-1.39c-1.56-1.45-1.13-3.63-.34-5.11s1.79-3.16.9-5c-1.35-2.75-5.24-2.85-7.91-2.32-1.45-1.66-1.95-3.74-2.92-5.63s-3-3.87-4.87-3.64-2.4,2.29-4.09,2.71c-2,.49-4.25-1.35-6.24-2.73s-5.07-2.24-5.75-.42c-.41,1.09.38,2.6-.06,3.68-.76,1.85-3.94.7-6.07-.62s-5.28-2.51-6.09-.68a6.26,6.26,0,0,0-.22,1.91c-.24,2.44-2.59,3.65-4.27,5.22s-2.54,4.67-.31,6.58c1.09.94,2.71,1.32,3.43,2.52.91,1.5-.29,2.84-1.26,3.87-1.6,1.72-.69,6.85,2.35,8.26,1.27.59,3,.77,3.55,2s-.39,2-.93,2.82c-1.47,2.34.45,6.55,3.6,7.89a3.9,3.9,0,0,1,2,1.23,2.51,2.51,0,0,1,.22,1.49,8.07,8.07,0,0,0,.46,2.86,1.68,1.68,0,0,0,.57.89,1.6,1.6,0,0,0,.91.24c3.92.17,5.45-1.19,8.65,2.16a3.92,3.92,0,0,0,1,.85,2.92,2.92,0,0,0,1.13.27c2.72.22,4.05-1.44,6.41-1.74,3.27-.43,4.42,1.3,7.74,2.69C403.38,150.19,405.31,148.84,405.4,145.67Z" style="fill:#ebebeb"></path><path d="M379.5,159.74a12.75,12.75,0,0,0-.26-2.75c-1.08-5.71,4.62-4.8,9.1-5.58,3.49-.6-8.44-9.75-1.83-12.7,1.23-.55,2.56-1.17,2.94-2.46.49-1.7-1-3.94-2.87-5.06a11.7,11.7,0,0,0-5.92-1.39c-1.56-1.45-1.13-3.63-.34-5.1s1.8-3.17.9-5c-1.35-2.75-5.24-2.85-7.91-2.32-1.45-1.66-1.94-3.74-2.92-5.63s-3-3.87-4.87-3.64-2.39,2.29-4.09,2.71c-2,.49-4.25-1.35-6.24-2.73s-5.07-2.24-5.75-.42c-.41,1.09.38,2.6-.06,3.68-.76,1.86-3.94.7-6.07-.62s-5.28-2.51-6.09-.68A6.26,6.26,0,0,0,337,112c-.24,2.44-2.59,3.65-4.27,5.22s-2.54,4.67-.31,6.58c1.09.94,2.71,1.32,3.43,2.52.91,1.5-.29,2.84-1.26,3.87-1.6,1.72-.69,6.85,2.35,8.26,1.27.59,3,.77,3.55,2s-.39,2-.93,2.82c-1.47,2.34.45,6.55,3.6,7.89a3.9,3.9,0,0,1,2,1.23,2.51,2.51,0,0,1,.22,1.49,8,8,0,0,0,.46,2.86,1.74,1.74,0,0,0,.57.89,1.6,1.6,0,0,0,.91.24c3.92.17,5.45-1.19,8.65,2.16a3.92,3.92,0,0,0,1,.85,2.92,2.92,0,0,0,1.13.27c2.72.22,4-1.44,6.41-1.74,3.27-.43,4.42,1.3,7.74,2.69C377.48,164.26,379.41,162.91,379.5,159.74Z" style="fill:#ebebeb"></path><path d="M348.16,153.24a12.75,12.75,0,0,0-.26-2.75c-1.08-5.71,4.62-4.8,9.1-5.58,3.49-.6-8.44-9.75-1.83-12.7,1.23-.55,2.56-1.17,2.94-2.46.49-1.7-1-3.94-2.87-5.06a11.67,11.67,0,0,0-5.92-1.39c-1.56-1.45-1.13-3.62-.34-5.1s1.8-3.16.9-5c-1.35-2.75-5.24-2.85-7.91-2.31-1.45-1.67-1.94-3.75-2.92-5.64s-3-3.87-4.87-3.64-2.39,2.29-4.09,2.71c-2,.49-4.25-1.35-6.24-2.73s-5.07-2.24-5.75-.42c-.41,1.09.38,2.61-.06,3.68-.76,1.86-3.94.7-6.06-.61s-5.29-2.52-6.1-.69a6.26,6.26,0,0,0-.22,1.91c-.24,2.44-2.59,3.65-4.27,5.22s-2.53,4.67-.31,6.58c1.1.94,2.71,1.32,3.43,2.52.91,1.5-.29,2.84-1.26,3.87-1.6,1.72-.69,6.85,2.35,8.26,1.27.59,3,.77,3.55,2s-.39,2-.93,2.82c-1.47,2.34.45,6.55,3.6,7.89a3.93,3.93,0,0,1,2,1.23,2.5,2.5,0,0,1,.21,1.49,8,8,0,0,0,.46,2.86,1.77,1.77,0,0,0,.57.9,1.67,1.67,0,0,0,.91.23c3.92.18,5.45-1.19,8.65,2.16a4,4,0,0,0,1,.86,3.1,3.1,0,0,0,1.14.26c2.71.22,4-1.43,6.4-1.74,3.27-.43,4.42,1.3,7.74,2.69C346.14,157.76,348.08,156.41,348.16,153.24Z" style="fill:#ebebeb"></path><path d="M355.65,184.83a10.26,10.26,0,0,0-.21-2.16c-.85-4.5,3.64-3.79,7.16-4.4,2.75-.47-6.64-7.67-1.43-10,1-.43,2-.92,2.31-1.93.39-1.34-.79-3.11-2.26-4a9.2,9.2,0,0,0-4.66-1.09c-1.23-1.14-.89-2.86-.27-4s1.42-2.49.71-3.93c-1.06-2.16-4.13-2.24-6.23-1.82-1.14-1.31-1.53-3-2.29-4.44s-2.35-3.05-3.84-2.86-1.89,1.8-3.22,2.13c-1.56.39-3.35-1.06-4.91-2.15s-4-1.76-4.53-.33c-.32.86.29,2-.05,2.9-.6,1.46-3.1.55-4.78-.49s-4.16-2-4.79-.53a4.86,4.86,0,0,0-.18,1.5c-.19,1.92-2,2.87-3.36,4.11s-2,3.68-.25,5.18c.87.74,2.14,1,2.71,2,.72,1.18-.23,2.24-1,3-1.26,1.35-.55,5.4,1.84,6.5,1,.47,2.34.61,2.8,1.58s-.31,1.55-.73,2.22c-1.16,1.84.35,5.16,2.84,6.21a3.08,3.08,0,0,1,1.56,1,2.09,2.09,0,0,1,.17,1.17,6.15,6.15,0,0,0,.35,2.25,1.4,1.4,0,0,0,.46.71,1.29,1.29,0,0,0,.71.19c3.09.13,4.29-.94,6.81,1.7a3.44,3.44,0,0,0,.81.67,2.32,2.32,0,0,0,.89.21c2.14.17,3.19-1.13,5-1.37,2.58-.34,3.48,1,6.1,2.12C354.06,188.39,355.58,187.33,355.65,184.83Z" style="fill:#ebebeb"></path><path d="M336.28,173.92a13.49,13.49,0,0,0-.27-2.75c-1.08-5.71,4.63-4.81,9.1-5.58,3.49-.6-8.44-9.75-1.82-12.7,1.22-.55,2.55-1.17,2.93-2.46.5-1.7-1-3.94-2.86-5.06a11.73,11.73,0,0,0-5.93-1.39c-1.56-1.45-1.13-3.63-.33-5.11s1.79-3.16.89-5c-1.34-2.75-5.24-2.85-7.9-2.32-1.45-1.66-1.95-3.74-2.92-5.63s-3-3.87-4.88-3.64-2.39,2.29-4.09,2.71c-2,.49-4.25-1.35-6.23-2.73s-5.08-2.24-5.76-.42c-.4,1.09.38,2.6-.06,3.68-.75,1.85-3.94.7-6.06-.62s-5.29-2.51-6.1-.68a7,7,0,0,0-.22,1.91c-.24,2.44-2.59,3.65-4.26,5.22S287,136,289.19,138c1.1.94,2.71,1.32,3.44,2.52.91,1.5-.3,2.84-1.26,3.87-1.61,1.72-.69,6.85,2.34,8.26,1.27.59,3,.77,3.56,2s-.4,2-.93,2.82c-1.48,2.34.44,6.55,3.6,7.89a3.94,3.94,0,0,1,2,1.23,2.59,2.59,0,0,1,.22,1.49,7.84,7.84,0,0,0,.45,2.86,1.74,1.74,0,0,0,.57.89,1.6,1.6,0,0,0,.91.24c3.92.17,5.45-1.19,8.65,2.16a3.92,3.92,0,0,0,1,.85,2.92,2.92,0,0,0,1.14.27c2.72.22,4.05-1.44,6.41-1.74,3.27-.43,4.41,1.3,7.74,2.69C334.25,178.44,336.19,177.09,336.28,173.92Z" style="fill:#ebebeb"></path><path d="M370.84,125a12.75,12.75,0,0,0-.26-2.75c-1.08-5.71,4.62-4.8,9.1-5.58,3.49-.6-8.44-9.75-1.83-12.7,1.23-.55,2.56-1.17,2.94-2.46.49-1.7-1-3.94-2.87-5.06A11.7,11.7,0,0,0,372,95.05c-1.56-1.45-1.13-3.62-.34-5.1s1.8-3.16.9-5c-1.35-2.75-5.24-2.85-7.91-2.31C363.2,81,362.71,78.9,361.73,77s-3-3.87-4.87-3.63-2.39,2.28-4.09,2.7c-2,.49-4.25-1.35-6.24-2.73s-5.07-2.24-5.75-.42c-.41,1.09.38,2.61-.06,3.68-.76,1.86-3.94.7-6.07-.61s-5.28-2.52-6.09-.69a6.26,6.26,0,0,0-.22,1.91c-.24,2.44-2.59,3.65-4.27,5.22s-2.54,4.67-.31,6.58c1.1.94,2.71,1.32,3.43,2.52.91,1.5-.29,2.84-1.26,3.87-1.6,1.72-.69,6.85,2.35,8.26,1.27.59,3,.77,3.55,2s-.39,2-.93,2.82c-1.47,2.34.45,6.55,3.6,7.89a3.9,3.9,0,0,1,2,1.23,2.51,2.51,0,0,1,.22,1.49,8,8,0,0,0,.46,2.86,1.77,1.77,0,0,0,.57.9,1.67,1.67,0,0,0,.91.23c3.92.18,5.45-1.19,8.65,2.16a4,4,0,0,0,1,.86,3.1,3.1,0,0,0,1.14.26c2.71.22,4-1.43,6.4-1.74,3.27-.43,4.42,1.3,7.74,2.69C368.82,129.51,370.75,128.16,370.84,125Z" style="fill:#ebebeb"></path><path d="M409.51,126.93a13.49,13.49,0,0,0-.27-2.75c-1.08-5.71,4.63-4.8,9.1-5.58,3.49-.6-8.44-9.75-1.82-12.7,1.22-.55,2.55-1.17,2.93-2.46.5-1.7-1-3.94-2.86-5.06A11.73,11.73,0,0,0,410.66,97c-1.56-1.45-1.13-3.62-.33-5.1s1.79-3.16.89-5c-1.35-2.75-5.24-2.85-7.91-2.31-1.44-1.67-1.94-3.75-2.91-5.64s-3-3.87-4.88-3.63-2.39,2.28-4.09,2.7c-2,.49-4.25-1.35-6.23-2.73s-5.08-2.24-5.76-.42c-.4,1.09.38,2.61-.06,3.68-.75,1.86-3.94.7-6.06-.61s-5.29-2.52-6.1-.69a7,7,0,0,0-.22,1.91c-.24,2.44-2.59,3.65-4.26,5.22s-2.54,4.67-.32,6.58c1.1.94,2.71,1.32,3.44,2.52.91,1.5-.3,2.84-1.26,3.87-1.61,1.72-.69,6.85,2.34,8.26,1.27.59,3,.77,3.56,2s-.4,2-.93,2.82c-1.48,2.34.44,6.55,3.6,7.89a3.94,3.94,0,0,1,2,1.23,2.59,2.59,0,0,1,.22,1.49,7.81,7.81,0,0,0,.45,2.86,1.77,1.77,0,0,0,.57.9,1.67,1.67,0,0,0,.91.23c3.92.18,5.45-1.19,8.65,2.16a4,4,0,0,0,1,.86,3.1,3.1,0,0,0,1.14.26c2.72.22,4.05-1.43,6.4-1.74,3.28-.43,4.42,1.3,7.75,2.69C407.48,131.45,409.42,130.1,409.51,126.93Z" style="fill:#ebebeb"></path><path d="M436.57,142.46a13.42,13.42,0,0,0-.27-2.75c-1.08-5.71,4.63-4.81,9.1-5.58,3.49-.61-8.44-9.75-1.83-12.7,1.23-.55,2.56-1.17,2.94-2.46.5-1.7-1-4-2.86-5.06a11.63,11.63,0,0,0-5.93-1.39c-1.56-1.45-1.13-3.63-.33-5.11s1.79-3.16.89-5c-1.35-2.75-5.24-2.85-7.91-2.32-1.44-1.66-1.94-3.74-2.91-5.63s-3-3.88-4.88-3.64-2.39,2.29-4.09,2.71c-2,.49-4.25-1.35-6.23-2.73s-5.08-2.24-5.76-.42c-.4,1.08.38,2.6-.06,3.67-.75,1.86-3.94.71-6.06-.61s-5.29-2.51-6.1-.68a7,7,0,0,0-.22,1.91c-.24,2.44-2.59,3.65-4.27,5.21s-2.53,4.68-.31,6.59c1.1.94,2.71,1.32,3.44,2.52.91,1.5-.3,2.84-1.26,3.87-1.61,1.72-.69,6.85,2.34,8.26,1.27.58,3,.77,3.56,2s-.4,2-.93,2.82c-1.48,2.34.44,6.55,3.6,7.89a3.88,3.88,0,0,1,2,1.23,2.59,2.59,0,0,1,.22,1.49,7.76,7.76,0,0,0,.45,2.85,1.73,1.73,0,0,0,.57.9,1.6,1.6,0,0,0,.91.24c3.92.17,5.45-1.19,8.65,2.16a4.12,4.12,0,0,0,1,.85,2.92,2.92,0,0,0,1.14.27c2.72.21,4.05-1.44,6.4-1.75,3.28-.42,4.42,1.31,7.75,2.7C434.54,147,436.48,145.63,436.57,142.46Z" style="fill:#ebebeb"></path><path d="M434.43,162.08s-6.31,13.63-8.57,17.95-12.28,31.24-10.12,49c.23,1.9.4,3.54.52,5C435.21,281.21,455.59,367.52,459,382.3H436.23c-4.36-16.66-44.26-169-46.13-173.63-2-4.92-16.18-23.66-32.81-31.36s-35.7-33.17-35.7-33.17h4.69s12.59,15.61,27.12,24.26a68.79,68.79,0,0,0,6.38,3.28,73.82,73.82,0,0,1-1.94-27.54l3.11,2.32c.05,13.91,2.72,22.82,5,27.94a70.74,70.74,0,0,1,14.91,8.51c8.71-16.59,6.47-54.52,6.47-54.52l3.73,1.79a185.73,185.73,0,0,1,1.56,23.26c0,9.82-2.43,28.3-3.64,36.69a122.27,122.27,0,0,1,14.21,18.09,5,5,0,0,1,.87-1.47c6.49-7.52,13.36-43,13.36-43,1.75-8.25-9.46-29.91-9.46-29.91h4.39l6.68,18.95,8.06-12,2.42,1.66-8,15-1.3,18.95,11.41-17.29Z" style="fill:#f0f0f0"></path><path d="M218.39,163.52,78.54,73.11l18,4.87s3-10.19,20.93-8.7S136.92,86.5,136.92,86.5s5.34-5.64,11.77,2.37,3.94,15.63,3.94,15.63,12.36,3.65,9.93,16.32Z" style="fill:#fafafa"></path><path d="M215.87,111.39,268.46,166l-22.08-29.55s.93-10.8-1.49-15.8-6.74-4.48-6.74-4.48,3.34-7.81-2-13.66-15.31-1.4-15.43,6.22,0,2.26,0,2.26S214.64,105.06,215.87,111.39Z" style="fill:#fafafa"></path></g><g id="freepik--Shadow--inject-81"><ellipse id="freepik--path--inject-81" cx="250" cy="416.24" rx="193.89" ry="11.32" style="fill:#f5f5f5"></ellipse></g><g id="freepik--Wind--inject-81"><path d="M210.79,239.63a.5.5,0,0,1-.31-.1l-.26-.2c-7.67-6-15.61-12.1-21.8-19.62-8-9.79-11.34-18.23-10.06-25.8a17.43,17.43,0,0,1,9.32-12.74,12.09,12.09,0,0,1,11.55.66c5,2.95,8.26,11.47,6.34,16.58-.7,1.85-2.74,4.79-8.54,3.7a.5.5,0,0,1,.18-1c3.82.72,6.39-.33,7.42-3.07,1.75-4.63-1.35-12.67-5.91-15.36a11,11,0,0,0-10.62-.62,16.4,16.4,0,0,0-8.75,12c-1.23,7.27,2,15.44,9.84,25,6.12,7.44,14,13.55,21.65,19.47l.25.2a.5.5,0,0,1,.09.7A.48.48,0,0,1,210.79,239.63Z" style="fill:#407BFF"></path><path d="M270,280.56a.5.5,0,0,1-.27-.08c-20.95-13.35-38-25-53.63-36.7a.5.5,0,0,1,.6-.8c15.62,11.68,32.64,23.32,53.56,36.66a.49.49,0,0,1,.16.69A.51.51,0,0,1,270,280.56Z" style="fill:#407BFF"></path><path d="M341.14,324.3a.48.48,0,0,1-.26-.07q-10.49-6.42-21-12.79c-14.66-8.9-29.82-18.1-44.58-27.41a.5.5,0,0,1,.54-.84c14.74,9.3,29.9,18.5,44.56,27.4q10.52,6.38,21,12.78a.51.51,0,0,1,.17.69A.52.52,0,0,1,341.14,324.3Z" style="fill:#407BFF"></path><path d="M365,338.12a.55.55,0,0,1-.25-.07c-5.53-3.13-11.36-6.49-17.33-10a.5.5,0,0,1,.5-.86c6,3.49,11.8,6.84,17.32,10a.5.5,0,0,1,.19.68A.51.51,0,0,1,365,338.12Z" style="fill:#407BFF"></path><path d="M376.41,344.47a.5.5,0,0,1-.24-.06l-4.82-2.66a.5.5,0,0,1-.19-.68.49.49,0,0,1,.68-.19q2.4,1.33,4.81,2.66a.49.49,0,0,1,.2.67A.51.51,0,0,1,376.41,344.47Z" style="fill:#407BFF"></path><path d="M213.42,273.06l-.15,0c-2-.64-4-1.3-6-2a.5.5,0,0,1-.31-.64.5.5,0,0,1,.63-.31c2,.67,4,1.33,5.94,2a.5.5,0,0,1,.32.63A.49.49,0,0,1,213.42,273.06Z" style="fill:#407BFF"></path><path d="M201.45,269l-.17,0c-17.81-6.29-35.41-13.37-52.29-21a.49.49,0,0,1-.25-.66.5.5,0,0,1,.66-.25c16.86,7.66,34.43,14.73,52.22,21a.5.5,0,0,1-.17,1Z" style="fill:#407BFF"></path><path d="M143.17,245.21a.59.59,0,0,1-.22-.05l-.85-.42c-3.89-1.9-7.78-3.79-11.66-5.72a.5.5,0,1,1,.44-.89q5.82,2.88,11.66,5.71l.85.42a.49.49,0,0,1,.23.66A.51.51,0,0,1,143.17,245.21Z" style="fill:#407BFF"></path><path d="M124.94,236.21a.46.46,0,0,1-.23-.06c-27.79-14.16-50-27.88-68.09-48.82C51,180.8,49.26,172,51.51,161.89c2.91-8.74,10.78-13.47,20.55-12.39,7.1,1,11.36,8,12.43,14.42,0,4.09-1.75,6.69-5.22,7.82a.5.5,0,0,1-.63-.33.49.49,0,0,1,.32-.63c3.05-1,4.54-3.21,4.54-6.78-1-6-5-12.56-11.57-13.5-9.25-1-16.71,3.44-19.46,11.66-1.5,6.78-1.88,16.59,4.91,24.51,18,20.82,40.1,34.48,67.78,48.59a.5.5,0,0,1-.22,1Z" style="fill:#407BFF"></path><path d="M280.22,430.58a15.85,15.85,0,0,1-4.75-.71,11.91,11.91,0,0,1-8.44-9.22c-1.63-7.66,6.65-12.64,10.29-14.43,7.09-3.49,15.06-5.88,22.61-8a.5.5,0,0,1,.61.36.49.49,0,0,1-.35.61c-7.5,2.06-15.41,4.44-22.43,7.89-3.43,1.68-11.23,6.35-9.76,13.33a11,11,0,0,0,7.77,8.47,16.2,16.2,0,0,0,15.29-3.53c2.09-2,2.92-4.22,2.38-6.48-.71-3-3.8-5.78-7.69-7a.5.5,0,0,1,.28-1c4.29,1.29,7.58,4.31,8.38,7.68.44,1.83.33,4.61-2.66,7.44A17,17,0,0,1,280.22,430.58Z" style="fill:#407BFF"></path><path d="M306.16,397.68a.5.5,0,0,1-.11-1c18.52-4.45,38.35-6.43,54.28-8a.51.51,0,0,1,.55.45.5.5,0,0,1-.45.55c-15.9,1.59-35.69,3.57-54.15,8Z" style="fill:#407BFF"></path><path d="M368.12,389.06a.5.5,0,0,1-.5-.47.49.49,0,0,1,.46-.53c4.1-.3,8.19-.57,12.29-.84a.5.5,0,0,1,.07,1q-6.15.39-12.29.84Z" style="fill:#407BFF"></path><path d="M387.27,387.67a.5.5,0,0,1-.5-.46.52.52,0,0,1,.46-.54c3.1-.25,6.21-.51,9.31-.8a.5.5,0,0,1,.09,1q-4.65.42-9.32.8Z" style="fill:#407BFF"></path><g style="opacity:0.6000000000000001;isolation:isolate"><path d="M210.79,239.63a.5.5,0,0,1-.31-.1l-.26-.2c-7.67-6-15.61-12.1-21.8-19.62-8-9.79-11.34-18.23-10.06-25.8a17.43,17.43,0,0,1,9.32-12.74,12.09,12.09,0,0,1,11.55.66c5,2.95,8.26,11.47,6.34,16.58-.7,1.85-2.74,4.79-8.54,3.7a.5.5,0,0,1,.18-1c3.82.72,6.39-.33,7.42-3.07,1.75-4.63-1.35-12.67-5.91-15.36a11,11,0,0,0-10.62-.62,16.4,16.4,0,0,0-8.75,12c-1.23,7.27,2,15.44,9.84,25,6.12,7.44,14,13.55,21.65,19.47l.25.2a.5.5,0,0,1,.09.7A.48.48,0,0,1,210.79,239.63Z" style="fill:#fff"></path><path d="M270,280.56a.5.5,0,0,1-.27-.08c-20.95-13.35-38-25-53.63-36.7a.5.5,0,0,1,.6-.8c15.62,11.68,32.64,23.32,53.56,36.66a.49.49,0,0,1,.16.69A.51.51,0,0,1,270,280.56Z" style="fill:#fff"></path><path d="M341.14,324.3a.48.48,0,0,1-.26-.07q-10.49-6.42-21-12.79c-14.66-8.9-29.82-18.1-44.58-27.41a.5.5,0,0,1,.54-.84c14.74,9.3,29.9,18.5,44.56,27.4q10.52,6.38,21,12.78a.51.51,0,0,1,.17.69A.52.52,0,0,1,341.14,324.3Z" style="fill:#fff"></path><path d="M365,338.12a.55.55,0,0,1-.25-.07c-5.53-3.13-11.36-6.49-17.33-10a.5.5,0,0,1,.5-.86c6,3.49,11.8,6.84,17.32,10a.5.5,0,0,1,.19.68A.51.51,0,0,1,365,338.12Z" style="fill:#fff"></path><path d="M376.41,344.47a.5.5,0,0,1-.24-.06l-4.82-2.66a.5.5,0,0,1-.19-.68.49.49,0,0,1,.68-.19q2.4,1.33,4.81,2.66a.49.49,0,0,1,.2.67A.51.51,0,0,1,376.41,344.47Z" style="fill:#fff"></path><path d="M213.42,273.06l-.15,0c-2-.64-4-1.3-6-2a.5.5,0,0,1-.31-.64.5.5,0,0,1,.63-.31c2,.67,4,1.33,5.94,2a.5.5,0,0,1,.32.63A.49.49,0,0,1,213.42,273.06Z" style="fill:#fff"></path><path d="M201.45,269l-.17,0c-17.81-6.29-35.41-13.37-52.29-21a.49.49,0,0,1-.25-.66.5.5,0,0,1,.66-.25c16.86,7.66,34.43,14.73,52.22,21a.5.5,0,0,1-.17,1Z" style="fill:#fff"></path><path d="M143.17,245.21a.59.59,0,0,1-.22-.05l-.85-.42c-3.89-1.9-7.78-3.79-11.66-5.72a.5.5,0,1,1,.44-.89q5.82,2.88,11.66,5.71l.85.42a.49.49,0,0,1,.23.66A.51.51,0,0,1,143.17,245.21Z" style="fill:#fff"></path><path d="M124.94,236.21a.46.46,0,0,1-.23-.06c-27.79-14.16-50-27.88-68.09-48.82C51,180.8,49.26,172,51.51,161.89c2.91-8.74,10.78-13.47,20.55-12.39,7.1,1,11.36,8,12.43,14.42,0,4.09-1.75,6.69-5.22,7.82a.5.5,0,0,1-.63-.33.49.49,0,0,1,.32-.63c3.05-1,4.54-3.21,4.54-6.78-1-6-5-12.56-11.57-13.5-9.25-1-16.71,3.44-19.46,11.66-1.5,6.78-1.88,16.59,4.91,24.51,18,20.82,40.1,34.48,67.78,48.59a.5.5,0,0,1-.22,1Z" style="fill:#fff"></path><path d="M280.22,430.58a15.85,15.85,0,0,1-4.75-.71,11.91,11.91,0,0,1-8.44-9.22c-1.63-7.66,6.65-12.64,10.29-14.43,7.09-3.49,15.06-5.88,22.61-8a.5.5,0,0,1,.61.36.49.49,0,0,1-.35.61c-7.5,2.06-15.41,4.44-22.43,7.89-3.43,1.68-11.23,6.35-9.76,13.33a11,11,0,0,0,7.77,8.47,16.2,16.2,0,0,0,15.29-3.53c2.09-2,2.92-4.22,2.38-6.48-.71-3-3.8-5.78-7.69-7a.5.5,0,0,1,.28-1c4.29,1.29,7.58,4.31,8.38,7.68.44,1.83.33,4.61-2.66,7.44A17,17,0,0,1,280.22,430.58Z" style="fill:#fff"></path><path d="M306.16,397.68a.5.5,0,0,1-.11-1c18.52-4.45,38.35-6.43,54.28-8a.51.51,0,0,1,.55.45.5.5,0,0,1-.45.55c-15.9,1.59-35.69,3.57-54.15,8Z" style="fill:#fff"></path><path d="M368.12,389.06a.5.5,0,0,1-.5-.47.49.49,0,0,1,.46-.53c4.1-.3,8.19-.57,12.29-.84a.5.5,0,0,1,.07,1q-6.15.39-12.29.84Z" style="fill:#fff"></path><path d="M387.27,387.67a.5.5,0,0,1-.5-.46.52.52,0,0,1,.46-.54c3.1-.25,6.21-.51,9.31-.8a.5.5,0,0,1,.09,1q-4.65.42-9.32.8Z" style="fill:#fff"></path></g><path d="M371.1,134.68s12.61,5.21,20.83-5.85L406.18,134a21.4,21.4,0,0,1-14.25,10.13Z" style="fill:#407BFF"></path><path d="M402.25,315.37s7.43-5.51,14.53-2.92l8.68,9.61s-10-1.3-13.71,3.75Z" style="fill:#407BFF"></path><path d="M227.43,183.21s7.17-9,15-5.55C242.47,177.66,238.29,189.05,227.43,183.21Z" style="fill:#407BFF"></path><path d="M275.16,323.47s8.83-2.47,10.73,5.81C285.89,329.28,278.88,331.37,275.16,323.47Z" style="fill:#407BFF"></path><path d="M307,108.19s-2.37-9.9,6.6-9.92C313.64,98.27,318.38,104.42,307,108.19Z" style="fill:#407BFF"></path><path d="M420.71,216.52s7.39-1.12,9.5,3.87C430.21,220.39,423.35,223.49,420.71,216.52Z" style="fill:#407BFF"></path><path d="M399.09,359.08s3.69-6.44,9.49-4.4C408.58,354.68,407.53,362,399.09,359.08Z" style="fill:#407BFF"></path><path d="M227.43,183.21s7.17-9,15-5.55C242.47,177.66,238.29,189.05,227.43,183.21Z" style="fill:#fff;opacity:0.4;isolation:isolate"></path><path d="M275.16,323.47s8.83-2.47,10.73,5.81C285.89,329.28,278.88,331.37,275.16,323.47Z" style="fill:#fff;opacity:0.4;isolation:isolate"></path><path d="M307,108.19s-2.37-9.9,6.6-9.92C313.64,98.27,318.38,104.42,307,108.19Z" style="fill:#fff;opacity:0.4;isolation:isolate"></path><path d="M420.71,216.52s7.39-1.12,9.5,3.87C430.21,220.39,423.35,223.49,420.71,216.52Z" style="fill:#fff;opacity:0.4;isolation:isolate"></path><path d="M399.09,359.08s3.69-6.44,9.49-4.4C408.58,354.68,407.53,362,399.09,359.08Z" style="fill:#fff;opacity:0.4;isolation:isolate"></path><path d="M371.1,134.68s12.61,5.21,20.83-5.85L406.18,134a21.4,21.4,0,0,1-14.25,10.13Z" style="fill:#fff;opacity:0.8"></path><path d="M402.25,315.37s7.43-5.51,14.53-2.92l8.68,9.61s-10-1.3-13.71,3.75Z" style="fill:#fff;opacity:0.8"></path></g><g id="freepik--Car--inject-81"><path d="M206.3,359H193.21c-3.77,0-7.3,7.4-7.88,16.52s2,16.51,5.77,16.51h13.09c3.78,0,7.31-7.39,7.89-16.51S210.08,359,206.3,359Z" style="fill:#263238"></path><path d="M206.53,360c-3.54,0-6.86,6.95-7.41,15.52s1.88,15.52,5.43,15.52,6.86-6.95,7.41-15.52S210.08,360,206.53,360Zm-1.72,26.71c-2.56,0-4.31-5-3.92-11.19s2.79-11.19,5.35-11.19,4.31,5,3.91,11.19S207.37,386.75,204.81,386.75Z" style="fill:#fff;opacity:0.1"></path><path d="M208.58,375.56c-.31,4.76-2.15,8.62-4.12,8.62s-3.32-3.86-3-8.62,2.15-8.63,4.12-8.63S208.88,370.79,208.58,375.56Z" style="fill:#fff;opacity:0.1"></path><path d="M207.19,375.56c-.11,1.71-.77,3.1-1.48,3.1s-1.19-1.39-1.08-3.1.77-3.1,1.48-3.1S207.3,373.85,207.19,375.56Z" style="fill:#fff;opacity:0.1"></path><path d="M123.52,345.42H101.91c-6.23,0-12,12.28-13,27.43s3.34,27.43,9.56,27.43H120.1c6.22,0,12-12.28,13-27.43S129.75,345.42,123.52,345.42Z" style="fill:#263238"></path><path d="M123.91,347.07c-5.86,0-11.33,11.55-12.22,25.78s3.14,25.78,9,25.78,11.32-11.54,12.21-25.78S129.76,347.07,123.91,347.07Zm-2.81,44.37c-4.22,0-7.12-8.32-6.48-18.59s4.59-18.59,8.81-18.59,7.12,8.33,6.48,18.59S125.32,391.44,121.1,391.44Z" style="fill:#fff;opacity:0.1"></path><path d="M127.31,372.85c-.5,7.91-3.54,14.33-6.79,14.33s-5.49-6.42-5-14.33,3.53-14.32,6.78-14.32S127.8,364.94,127.31,372.85Z" style="fill:#fff;opacity:0.1"></path><path d="M125,372.85c-.18,2.85-1.27,5.15-2.44,5.15s-2-2.3-1.79-5.15,1.26-5.14,2.43-5.14S125.2,370,125,372.85Z" style="fill:#fff;opacity:0.1"></path><path d="M82.22,380.26l10.06,5H292.06l15.35-6.33V373.4s-3.28-21-22.27-28.43-71.73-27.16-71.73-27.16L83.78,334.61l-8.57,32.73Z" style="fill:#263238"></path><path d="M307.41,373.41V379l-15.35,6.33H242c.68-22.91-10.92-33.84-10.92-33.84L209.5,385.28H187.56l-33.5-5.21-5.44-11.67H108.7l-4.89,11.67L88,382.37l-7.22-4.71L75.2,367.34l8.58-32.73,129.62-16.8s52.75,19.73,71.74,27.16S307.41,373.41,307.41,373.41Z" style="fill:#fff;opacity:0.2"></path><path d="M76.53,339.89l-9.37,8.72s-.13,18.73,9.37,30.07l5.69,1.58s-2-6.68,0-17.05h102.7a63.18,63.18,0,0,1,15.3,17.05L215,382.37s11.6-6.86,25.58-40.61c0,0,6.07,1.54,6.86,15.54a96.47,96.47,0,0,1-1.85,25.07h43s5.19-8.7,7.74-27.69c0,0,8.08,2.9,7,24l5.27-1.58,1.2-6.71-2.51-1.47s.52-14.29-23.48-29c0,0-14.66-17.1-25.66-25.42s-34.57-15.22-71.57-16.39-59.69,12.07-59.69,12.07Z" style="fill:#407BFF"></path><path d="M76.53,339.89l-9.37,8.72s-.13,18.73,9.37,30.07l5.69,1.58s-2-6.68,0-17.05h102.7a63.18,63.18,0,0,1,15.3,17.05L215,382.37s11.6-6.86,25.58-40.61c0,0,6.07,1.54,6.86,15.54a96.47,96.47,0,0,1-1.85,25.07h43s5.19-8.7,7.74-27.69c0,0,8.08,2.9,7,24l5.27-1.58,1.2-6.71-2.51-1.47s.52-14.29-23.48-29c0,0-14.66-17.1-25.66-25.42s-34.57-15.22-71.57-16.39-59.69,12.07-59.69,12.07Z" style="opacity:0.2"></path><path d="M143.71,306.51s10.88-7.45,32-6.71,44.7,5.3,44.7,5.3-7.32.19-15.63,10.48S143.71,306.51,143.71,306.51Z" style="opacity:0.2"></path><path d="M207.75,293.61l-1.6-.18c-11.17-1.24-78.64-8.16-127.12.18L69,288.3l-1.88-1s66.46-14.24,134.11,0Z" style="fill:#407BFF"></path><path d="M206.15,293.43c-11.17-1.24-78.64-8.16-127.12.18L69,288.3c11.25-2.15,71.26-12.45,132.23.38Z" style="opacity:0.30000000000000004"></path><polygon points="162.5 284.17 169.36 310.15 174.9 310.15 166.99 287.28 162.5 284.17" style="fill:#263238"></polygon><polygon points="102.5 284.17 109.36 310.15 114.9 310.15 106.99 287.28 102.5 284.17" style="fill:#263238"></polygon><polygon points="110.26 310.15 114.9 310.15 106.99 287.28 103.13 284.61 110.26 310.15" style="fill:#fff;opacity:0.4"></polygon><polygon points="170.12 310.15 174.9 310.15 166.99 287.28 162.97 284.5 170.12 310.15" style="fill:#fff;opacity:0.4"></polygon><path d="M217.09,310.15l-7.64,29.74H157l-12.13,7.28H108.7L105,339.89H76.52l5.7-30.83s16.72-7.13,34.92-7.13l3.69,3.57h35.34l6.33-3.57S191.78,300.69,217.09,310.15Z" style="fill:#407BFF"></path><polygon points="112.26 329.03 109.89 340.19 147.67 340.19 148.63 329.03 112.26 329.03" style="opacity:0.2"></polygon><path d="M211.65,312.36l-2.07,8.17-1.23-.15c-15.56-1.78-33.45-.84-33.45-.84l-9.83,4.53h0l-1,.44h-3.16l11.27-10C191.58,308.42,211.65,312.36,211.65,312.36Z" style="fill:#fff;opacity:0.4"></path><path d="M108.7,324.52h-2.11l-.7-.58L101.18,320c-8-1.32-18.46-.66-18.46-.66l1-4.91.23-1.15c12.26-1.19,20.7,2.63,20.7,2.63Z" style="fill:#fff;opacity:0.4"></path><polyline points="67.16 348.61 97.1 348.61 103.82 356 100 347.16 103.82 341.49 76.53 341.49 67.19 349.94" style="fill:#fff;opacity:0.2"></polyline><path d="M146.81,356l11.47-7.26h44.05s7.91-8,7.12-7.25-51.43,0-51.43,0L157,347.16Z" style="fill:#fff;opacity:0.2"></path><polygon points="162.5 301.93 153.27 311.1 119.05 311.1 117.14 301.93 120.83 305.5 156.17 305.5 162.5 301.93" style="opacity:0.1"></polygon><circle cx="171.37" cy="370.39" r="5.31" style="fill:#263238"></circle><path d="M92.28,374.76c0,2.93-1.9,5.31-4.25,5.31s-4.25-2.38-4.25-5.31,1.9-5.31,4.25-5.31S92.28,371.83,92.28,374.76Z" style="fill:#263238"></path><path d="M100.79,370.39c0,2.93-1.9,5.31-4.25,5.31s-4.26-2.38-4.26-5.31,1.91-5.31,4.26-5.31S100.79,367.46,100.79,370.39Z" style="fill:#263238"></path><path d="M188.77,374.76a5.31,5.31,0,1,1-5.3-5.31A5.3,5.3,0,0,1,188.77,374.76Z" style="fill:#263238"></path><path d="M249.31,326.68a64.21,64.21,0,0,1,6.84,8.6l-2.92-.67c-12.66-17.16-34-24.46-34-24.46a44.83,44.83,0,0,1,22.12-.31,58.22,58.22,0,0,1,7.87,16.63l0,.12Z" style="opacity:0.2"></path><path d="M283,341.5l-25.47-5.89a67.87,67.87,0,0,0-7.45-9.54,59.6,59.6,0,0,0-7.37-15.9,64.75,64.75,0,0,1,12.07,4.31C270.37,321.74,283,341.5,283,341.5Z" style="opacity:0.2"></path><path d="M220.46,312s20.37,7.12,33.82,30.26l34.42,6.44a134.86,134.86,0,0,1-1.38,20.73s5.34-7.39,6.13-19.26a40.11,40.11,0,0,1,10.68,11.08s-7.85-15.62-19.19-18.79-30.66-5.93-30.66-5.93S242.28,319,220.46,312Z" style="fill:#407BFF"></path><path d="M215.12,368.59s7.49-27.64,16-37.47c0,0,7.91,4,12.46,9.07l-7.32-3.05S228,360.08,215.12,368.59Z" style="fill:#407BFF"></path><path d="M209.5,314.48l-1.15,5.9c-15.56-1.78-33.45-.84-33.45-.84l-9.83,4.53,9.83-8.68S196.17,310.6,209.5,314.48Z" style="fill:#fff;opacity:0.4"></path><path d="M105.89,323.94,101.18,320c-8-1.32-18.46-.66-18.46-.66l1-4.91c3-.12,12.38-.25,19.45,2.54Z" style="fill:#fff;opacity:0.4"></path><polygon points="72.5 352.37 85.49 353.36 86.55 357.12 73.69 358.7 72.5 352.37" style="fill:#407BFF"></polygon><polygon points="174.9 353.36 198.7 353.36 197.91 360.68 173.98 357.02 174.9 353.36" style="fill:#407BFF"></polygon><path d="M281,338.49l5.91,1.26a1,1,0,0,1,.78.79l.24,1.19a1,1,0,0,1-.73,1.16l-3.2.84a11.09,11.09,0,0,0-3-3Z" style="fill:#407BFF"></path><path d="M281,338.49l5.91,1.26a1,1,0,0,1,.78.79l.24,1.19a1,1,0,0,1-.73,1.16l-3.2.84a11.09,11.09,0,0,0-3-3Z" style="opacity:0.1"></path><path d="M282.22,339.32v1.42a11.24,11.24,0,0,1,1.83,2.09l2-.68a.57.57,0,0,0,.38-.6l-.08-.94a.6.6,0,0,0-.45-.51Z" style="fill:#fff;opacity:0.4"></path><path d="M256.19,382.37c-.85,10.89-4.57,18.71-9.5,18.71H225.08c-5,0-9.68-7.94-11.86-19l1.76.25s10.76-6.35,24-36.94h4.25a4.8,4.8,0,0,1,1.3.18c5.72,1.58,10.81,13.35,11.69,27.64A62.69,62.69,0,0,1,256.19,382.37Z" style="fill:#263238"></path><path d="M256.06,373.25c-.81-13.12-5.39-24-10.62-25.86a4.61,4.61,0,0,0-1.59-.29c-5.85,0-9.88,11.71-9,26.15s6.36,26.15,12.21,26.15c4.55,0,8-7.09,8.88-17A59.74,59.74,0,0,0,256.06,373.25Zm-9.47,18.86c-4.22,0-8.16-8.44-8.8-18.86s2.26-18.85,6.48-18.85a4.46,4.46,0,0,1,3,1.46c2.93,2.84,5.28,9.56,5.76,17.39a41.15,41.15,0,0,1-.39,9.12C251.74,388.18,249.47,392.11,246.59,392.11Z" style="fill:#fff;opacity:0.1"></path><ellipse cx="244.59" cy="373.25" rx="5.88" ry="14.56" transform="translate(-26.71 18.94) rotate(-4.21)" style="fill:#fff;opacity:0.1"></ellipse><path d="M248.19,373.25c.18,2.88-.63,5.22-1.8,5.22s-2.26-2.34-2.43-5.22.62-5.22,1.79-5.22S248,370.36,248.19,373.25Z" style="fill:#fff;opacity:0.1"></path><path d="M298.89,392.86H285.8c-2.85,0-5.63-4.33-7.13-10.49h9.9a40.78,40.78,0,0,0,2.89-6.65,97,97,0,0,0,4-15.34c.08-.44.16-.88.23-1.33h.65c2.59,0,5.12,3.58,6.68,8.84a39.65,39.65,0,0,1,1.45,8.06c.06.81.1,1.6.1,2.37C304.7,386.54,302.33,392.86,298.89,392.86Z" style="fill:#263238"></path><path d="M304.31,376a36.07,36.07,0,0,0-1.21-7.05c-1.44-5.24-3.9-8.84-6.43-8.84a2.64,2.64,0,0,0-1.25.32,97,97,0,0,1-4,15.34,1.77,1.77,0,0,0,0,.23c.67,8.78,4.09,15.9,7.63,15.9,3.22,0,5.43-5.85,5.31-13.49C304.41,377.58,304.37,376.77,304.31,376Zm-5.56,11.46c-2.56,0-5-5.13-5.51-11.46s1.2-11.45,3.75-11.45,5,5.13,5.51,11.45S301.3,387.41,298.75,387.41Z" style="fill:#fff;opacity:0.1"></path><path d="M300.93,376c.37,4.88-.92,8.83-2.89,8.83s-3.87-3.95-4.25-8.83.92-8.83,2.89-8.83S300.55,371.07,300.93,376Z" style="fill:#fff;opacity:0.1"></path><path d="M299.54,376c.13,1.75-.33,3.17-1,3.17S297.11,377.7,297,376s.33-3.17,1-3.17S299.41,374.2,299.54,376Z" style="fill:#fff;opacity:0.1"></path><path d="M260.19,400s-20.66,2.64-36.75-3.59c0,0-.54-16.55-11.48-20.88S199,384.64,199,384.64s-10.31-10.92-17-.23c-2.78,4.43-2.1,8-.35,10.76a4.07,4.07,0,0,0-1.42,7.58l-15.37,3Z" style="fill:#407BFF"></path><path d="M109.89,400.28l-26.11-4.92s0-8.72-9.72-15.29c-8.49-5.74-11,0-11,0s-6.6-6.24-12.93-4.51-7.91,9.67-1.31,16.51c0,0-2.12-1.65-5.41,1.28s5.14,8,5.14,8-9.23,3.12-12.66,7.6C35.92,408.93,80.65,400.15,109.89,400.28Z" style="fill:#407BFF"></path><path d="M260.19,400s-20.66,2.64-36.75-3.59c0,0-.54-16.55-11.48-20.88S199,384.64,199,384.64s-10.31-10.92-17-.23c-2.78,4.43-2.1,8-.35,10.76a4.07,4.07,0,0,0-1.42,7.58l-15.37,3Z" style="fill:#fff;opacity:0.8"></path><path d="M109.89,400.28l-26.11-4.92s0-8.72-9.72-15.29c-8.49-5.74-11,0-11,0s-6.6-6.24-12.93-4.51-7.91,9.67-1.31,16.51c0,0-2.12-1.65-5.41,1.28s5.14,8,5.14,8-9.23,3.12-12.66,7.6C35.92,408.93,80.65,400.15,109.89,400.28Z" style="fill:#fff;opacity:0.8"></path></g><g id="freepik--Character--inject-81"><path d="M317.3,221l-.4-.65A5.2,5.2,0,0,0,317.3,221Z" style="fill:#407BFF"></path><path d="M377.13,177.64c-12,.52-43.43,8.15-43.43,8.15l.79,2.26c5.41-2.75,30.38-6.26,30.38-6.26a36,36,0,0,0-3.67,19.57c-4.62,5.4-19.49,22-29.3,23.75-9.47,1.7-13.42-2.42-14.6-4.07,10.69,16.81,35.46-7.17,44.33-16.71h0c6.39-3.77,19.46-4.28,22.62-5.59s4.75-9.89,7.12-16.38S389.13,177.11,377.13,177.64Z" style="fill:#407BFF"></path><g style="opacity:0.2;isolation:isolate"><path d="M317.3,221l-.4-.65A5.2,5.2,0,0,0,317.3,221Z"></path><path d="M377.13,177.64c-12,.52-43.43,8.15-43.43,8.15l.79,2.26c5.41-2.75,30.38-6.26,30.38-6.26a36,36,0,0,0-3.67,19.57c-4.62,5.4-19.49,22-29.3,23.75-9.47,1.7-13.42-2.42-14.6-4.07,10.69,16.81,35.46-7.17,44.33-16.71h0c6.39-3.77,19.46-4.28,22.62-5.59s4.75-9.89,7.12-16.38S389.13,177.11,377.13,177.64Z"></path></g><path d="M372.82,390.51,368,393.35a92.41,92.41,0,0,0-7.34-8.7h0c-1.4-1.48-2.87-3.12-4.4-4.88-3.06-3.51-6.37-7.52-9.84-11.83L343.3,364c-12.09-15.21-25.16-33.09-30.05-45.18-1.52-3.76-2.26-6.95-1.93-9.34,1-7.22,3.8-18.09,7-28.59,4.88-16.05,10.37-31.26,10.37-31.26l13.49,22.85s-4.14,9.87-7.91,20.38c-3.71,10.32-7.06,21.27-5.82,24.12.12.28.27.61.44,1,2.24,4.64,8.44,15.15,15.48,26.76l2.15,3.53c3.78,6.2,7.71,12.57,11.35,18.42,1.42,2.3,2.8,4.52,4.11,6.62C368.19,383.28,372.82,390.51,372.82,390.51Z" style="fill:#e4897b"></path><path d="M343,364c6.38,8,12.51,15.3,17.07,20.6.65-3.26,1.31-7.12,1.83-11.33-5.27-8.46-11.72-18.9-17.58-28.57A110.64,110.64,0,0,1,343,364Z" style="opacity:0.2;isolation:isolate"></path><path d="M367.1,297.92c-1.67,11.39-4.05,21.71-5.6,27.86-.93,3.69-1.56,5.87-1.56,5.87a308.47,308.47,0,0,1-2.06,35c-.51,4.58-1.06,9-1.63,13.07-2.1,15.14-4.31,26-4.31,26l-5.75-.75.22-37.09.12-19.66.16-26.75.06-4.66.28-20.34.41-30,20-9C370.12,268.92,369.12,284.2,367.1,297.92Z" style="fill:#e4897b"></path><path d="M342.19,272.52s-4.14,9.87-7.91,20.38c-1.29,3.59-2.53,7.25-3.56,10.62-8.08.35-13.89-.24-18.07-1.3,1.37-6.35,3.42-13.91,5.68-21.29,4.88-16.05,10.37-31.26,10.37-31.26Z" style="opacity:0.2;isolation:isolate"></path><path d="M367.1,297.92c-.51,3.48-1.09,6.86-1.69,10.05A35.84,35.84,0,0,1,347,301.13l.06-4.61.41-30,20-9C370.12,268.92,369.12,284.2,367.1,297.92Z" style="opacity:0.2;isolation:isolate"></path><path d="M372.37,387.35c-.59-.43-5.57,7-5.57,7s1.11,7.78-1.13,12.79,2.12,4.59,5.74-.16l9-11.75C383,391.88,378.48,391.8,372.37,387.35Z" style="fill:#263238"></path><path d="M365,400a1,1,0,0,1-.92-1.17,3.66,3.66,0,0,1,1-1.73c-.75.34-1.51.56-1.9.3s-.34-.48-.24-.93a1.32,1.32,0,0,1,.67-.93c1.14-.66,3.24,0,3.35,0l.08,0h0l0,.06h0l0,.08h0v.09c-.14.64-.87,3.87-2,4.13Zm1.54-3.59c-.78.66-1.9,1.74-2,2.48a.47.47,0,0,0,.1.39c.22.29.36.25.41.24C365.54,399.43,366.14,397.83,366.5,396.44Zm-1.57-.69a2.29,2.29,0,0,0-1.08.22.94.94,0,0,0-.45.63c0,.14-.06.37,0,.44.34.23,1.67-.37,2.87-1.12A6.75,6.75,0,0,0,364.93,395.75Z" style="fill:#407BFF"></path><path d="M354,402.1c0-.73-9-.16-9-.16s-5.5,5.6-10.85,6.86-2.36,4.47,3.62,4.47h14.79C356.8,413.27,354.15,409.65,354,402.1Z" style="fill:#263238"></path><path d="M340.3,404.23a1.18,1.18,0,0,1-.79-.22.83.83,0,0,1-.22-.95,1,1,0,0,1,.48-.61,3.62,3.62,0,0,1,2-.21c-.72-.39-1.36-.87-1.39-1.34,0-.3.18-.55.59-.75a1.38,1.38,0,0,1,1.16,0c1.21.5,2,2.58,2,2.68a.16.16,0,0,1,0,.1h0a.14.14,0,0,1,0,.07h0a.16.16,0,0,1,0,.07h0l-.08.06A11.27,11.27,0,0,1,340.3,404.23Zm.76-1.56a2.29,2.29,0,0,0-1.06.19.49.49,0,0,0-.25.32c-.09.35,0,.44.06.47.42.35,2.06-.15,3.38-.7A10.42,10.42,0,0,0,341.06,402.67Zm.52-2.19a.91.91,0,0,0-.41.1c-.12.06-.32.17-.32.3,0,.4,1.31,1.1,2.63,1.6a3.9,3.9,0,0,0-1.53-1.92A1,1,0,0,0,341.58,400.48Z" style="fill:#407BFF"></path><path d="M408.38,257.52C397.31,269.88,396,264.67,384.91,269s-1.84,19.46-17.52,26.92-27.31-.61-32.9,0-22.33,8.69-22-1.38,16-49.28,16-49.28l1.3-6.82a47.67,47.67,0,0,1,11.4-10.08,107.12,107.12,0,0,1,24.27-11.4c8.17-18.75,26.11-18.17,28.22-9.64s-.27,4.13,9.23,11.25a21.09,21.09,0,0,1,2.95,2.7C413.66,229.75,418.27,246.48,408.38,257.52Z" style="fill:#407BFF"></path><path d="M405.8,221.22A12.79,12.79,0,0,0,398,228c-4.81,9.44-15.43,18.84-23.27,8s-13.13-5.36-13.13-5.36-11.87.83-20.5-2.25a107.12,107.12,0,0,1,24.27-11.4c8.17-18.75,26.11-18.17,28.22-9.64s-.27,4.13,9.23,11.25A21.09,21.09,0,0,1,405.8,221.22Z" style="opacity:0.2;isolation:isolate"></path><path d="M303.89,187l3.29-4.64s5.7,0,6.77-2.22-.53-8-1.85-8.65-9.15,4.59-9.24,5.17a21.23,21.23,0,0,0,0,2.56l-3.93,5.21Z" style="fill:#e4897b"></path><path d="M309.63,193.23a46.14,46.14,0,0,1-9.29,4.52l6.55-14.29-5.63-3.32s-15.12,17.49-14.33,25.19c.66,6.36,10.83,8.57,30.65,1.94Z" style="fill:#263238"></path><path d="M317.58,207.27l-.1,0a90.65,90.65,0,0,1-11,3c-12.51,2.5-19,.06-19.51-5-.79-7.7,14.33-25.19,14.33-25.19l5.63,3.32-6.54,14.28a45.78,45.78,0,0,0,9.28-4.51l4.58,8.09,2.82,5Z" style="fill:#fff;opacity:0.2;isolation:isolate"></path><path d="M317.48,207.3a90.65,90.65,0,0,1-11,3,25.79,25.79,0,0,0,7.77-9c.2-.39.3-.61.3-.61l2.52,5.58Z" style="opacity:0.2;isolation:isolate"></path><path d="M304.4,152.05s-13.84,10.54-1.54,23.37,35.24,4,35.24,4a28.17,28.17,0,0,0,12.66,2.91c6.72-.24,17.21-7.91,17.21-7.91s7.59-1.73,9.93-.49c0,0-.24-3.1-9.93-3.8,0,0,16.81-.5,15.62-12.17,0,0,.05,8.86-13.82,6.31S349,157.2,338.1,157,304.4,152.05,304.4,152.05Z" style="fill:#263238"></path><path d="M329.73,238.39s14.3,5.2,31.9-7.83c0,0-7.69-17.51-9.59-27.6-.61-3.27-1.2-7-1.79-11.35-.24-1.85-.48-3.81-.73-5.92-.24-1.95-.47-4-.7-6.24a94.3,94.3,0,0,0-13.49,2.74,103,103,0,0,0-13.76,4.74c-5.7,2.61-11.94,6.3-11.94,6.3s-.81.66,1.41,7C313.15,206.09,318.94,218.37,329.73,238.39Z" style="fill:#263238"></path><path d="M361.63,230.56c-17.6,13-31.9,7.83-31.9,7.83-10.79-20-16.58-32.3-18.69-38.21-2.22-6.29-1.41-7-1.41-7s6.24-3.69,11.94-6.3a103,103,0,0,1,13.76-4.74,94.3,94.3,0,0,1,13.49-2.74c.23,2.2.46,4.29.7,6.24.25,2.11.49,4.07.73,5.92.59,4.36,1.18,8.08,1.79,11.35.15.81.34,1.67.57,2.57a166.8,166.8,0,0,0,7,20.33C360.82,228.71,361.63,230.56,361.63,230.56Z" style="fill:#fff;opacity:0.30000000000000004;isolation:isolate"></path><path d="M327,192.26c6.77-4.29,7.49-8.38,7.49-8.38-4.24-1.4-5.61-5.74-6.06-8.65a16.27,16.27,0,0,1-.21-2.77l-7.91,5.68a27.4,27.4,0,0,1,2,3.49,12.09,12.09,0,0,1,1,2.8c.62,2.86-.84,3.59-.84,3.59C322.33,191.57,327,192.26,327,192.26Z" style="fill:#e4897b"></path><path d="M322.35,181.63a12.09,12.09,0,0,1,1,2.8c3.23-2.07,4.55-6,5.07-9.2a16.27,16.27,0,0,1-.21-2.77l-7.91,5.68A27.4,27.4,0,0,1,322.35,181.63Z" style="opacity:0.2;isolation:isolate"></path><path d="M308.37,155.65c-7,4.57-6.76,9.77-2.56,17.28,5.24,9.38,11.41,14.45,18.86,6.82C334.79,169.4,319.93,148.07,308.37,155.65Z" style="fill:#e4897b"></path><path d="M310.05,169.59a17.5,17.5,0,0,1-.13,4.21,2.28,2.28,0,0,0,2.35-.41Z" style="fill:#de5753"></path><path d="M310.64,165a4.31,4.31,0,0,1,2.93-2.45" style="fill:none;stroke:#263238;stroke-linecap:round;stroke-linejoin:round;stroke-width:0.707962px"></path><path d="M307.18,166.26a3.89,3.89,0,0,0-3.29.83" style="fill:none;stroke:#263238;stroke-linecap:round;stroke-linejoin:round;stroke-width:0.707962px"></path><path d="M323.68,162.4s-7-3.59-9.41-8.33c0,0-17.5,3.41-9,17.87,0,0-9.5-11.56,2.29-19.68S330.78,161.67,328,171C328,171,328,164.65,323.68,162.4Z" style="fill:#263238"></path><path d="M323.5,164.61a3.67,3.67,0,0,1,1.46-5c2.31-1.18,6.25,2.58,1.58,7.17C325.87,167.48,324.94,167,323.5,164.61Z" style="fill:#e4897b"></path><path d="M303.2,159.45s13.34,12.15,34.7,4.85S370.74,163,370.74,163s-5.15-8.37-12.47-9-10.15,1.17-10.15,1.17,9.17-3.15,5.41-10.38c0,0,0,5.63-5.15,7.21s-4.94-4.14-15.62-7.21a21.36,21.36,0,0,0-18.12,2.67S295.18,145,303.2,159.45Z" style="fill:#263238"></path><path d="M308,169.59a1.33,1.33,0,0,0-1.71.66" style="fill:none;stroke:#263238;stroke-linecap:round;stroke-linejoin:round;stroke-width:0.707962px"></path><path d="M313.57,166.63s0-1.57,1.87-1.14" style="fill:none;stroke:#263238;stroke-linecap:round;stroke-linejoin:round;stroke-width:0.707962px"></path><path d="M317,171.76a5.15,5.15,0,0,0-2.42,3,1.07,1.07,0,0,0-.08.46c0,.32.36.52.64.68a3.93,3.93,0,0,0,2.4.73,3.61,3.61,0,0,0,1.7-.9,4.84,4.84,0,0,0,1.17-1.26,1.89,1.89,0,0,0,.19-1.65,2.07,2.07,0,0,0-1.06-1A2.91,2.91,0,0,0,317,171.76Z" style="fill:#263238"></path><path d="M302.86,157.31s3.33,11.82,22.18,12.18" style="fill:none;stroke:#263238;stroke-linecap:round;stroke-linejoin:round;stroke-width:0.707962px"></path><path d="M304.6,172.46s5.3,10.62,15.71,6" style="fill:none;stroke:#263238;stroke-linecap:round;stroke-linejoin:round;stroke-width:0.707962px"></path><path d="M344,256.36l-1.84,7.39s-6.6,7-6.07,7.91,4.62,3.82,6.07,3.56,6.06-7.25,5.93-8.18-.53-2.9-.53-2.9l1.45-6.62Z" style="fill:#e4897b"></path><path d="M359.65,225.86c-1.55,3-3.51,5.6-5.86,6.37-5.39,1.78-2.47-18.84-1.18-26.7A166.8,166.8,0,0,0,359.65,225.86Z" style="opacity:0.1;isolation:isolate"></path><path d="M348.82,179.45c10.8.07,9.86,36.68,9.09,44.74s-9.09,38.37-9.09,38.37l-6.63-2.37s6.59-32.81,7.12-39.35-3.61-26.85-3.12-32.92S348.82,179.45,348.82,179.45Z" style="fill:#263238"></path><path d="M348.82,179.45c10.8.07,9.86,36.68,9.09,44.74s-9.09,38.37-9.09,38.37l-6.63-2.37s6.59-32.81,7.12-39.35-3.61-26.85-3.12-32.92S348.82,179.45,348.82,179.45Z" style="fill:#fff;opacity:0.2;isolation:isolate"></path><path d="M332.51,195.53c-5.79,0-8.68-1.4-10.09-3a5.84,5.84,0,0,1-1.08-5.71.25.25,0,0,1,.46.18,5.48,5.48,0,0,0,1,5.21c2.33,2.57,8.87,4.65,26.74.28a14.19,14.19,0,0,1-7.12-3.07c-1.76-1.36-3.13-2.54-4.23-3.48-2-1.69-3.14-2.71-4.52-3.09a.24.24,0,0,1-.18-.3.26.26,0,0,1,.31-.18c1.49.41,2.71,1.46,4.72,3.19,1.09.94,2.45,2.11,4.21,3.46,4.71,3.64,8.74,3,8.79,3a.25.25,0,0,1,.28.19.24.24,0,0,1-.18.29C343.11,194.7,337,195.53,332.51,195.53Z" style="fill:#263238"></path><polygon points="350.26 192.5 352.97 189.93 355.23 191.22 353.8 193.3 350.26 192.5" style="fill:#407BFF"></polygon><path d="M317.41,189c-2.9,1.54-7.92,28.18,5.37,37,0,0-10.13-3.37-10.13-20.44,0-12.23,3.16-16.16,3.16-16.16Z" style="fill:#407BFF"></path></g></svg>